<svg width="64" height="64" viewBox="0 0 64 64" fill="none" xmlns="http://www.w3.org/2000/svg">
<path d="M21.2088 23.5783L21.2088 23.5786L21.2217 23.5765C21.3141 23.5611 21.4002 23.5605 21.5185 23.5605H21.5188H21.5191H21.5194H21.5196H21.5199H21.5202H21.5205H21.5208H21.5211H21.5214H21.5217H21.522H21.5223H21.5225H21.5228H21.5231H21.5234H21.5237H21.524H21.5243H21.5246H21.5249H21.5252H21.5255H21.5258H21.5261H21.5264H21.5267H21.5271H21.5274H21.5277H21.528H21.5283H21.5286H21.5289H21.5292H21.5295H21.5298H21.5301H21.5305H21.5308H21.5311H21.5314H21.5317H21.532H21.5324H21.5327H21.533H21.5333H21.5336H21.534H21.5343H21.5346H21.5349H21.5352H21.5356H21.5359H21.5362H21.5365H21.5369H21.5372H21.5375H21.5378H21.5382H21.5385H21.5388H21.5392H21.5395H21.5398H21.5401H21.5405H21.5408H21.5411H21.5415H21.5418H21.5421H21.5425H21.5428H21.5431H21.5435H21.5438H21.5442H21.5445H21.5448H21.5452H21.5455H21.5458H21.5462H21.5465H21.5469H21.5472H21.5475H21.5479H21.5482H21.5486H21.5489H21.5492H21.5496H21.5499H21.5503H21.5506H21.551H21.5513H21.5516H21.552H21.5523H21.5527H21.553H21.5534H21.5537H21.5541H21.5544H21.5548H21.5551H21.5555H21.5558H21.5561H21.5565H21.5568H21.5572H21.5575H21.5579H21.5582H21.5586H21.5589H21.5593H21.5596H21.56H21.5603H21.5607H21.561H21.5614H21.5617H21.5621H21.5624H21.5628H21.5631H21.5635H21.5638H21.5642H21.5645H21.5649H21.5653H21.5656H21.566H21.5663H21.5667H21.567H21.5674H21.5677H21.5681H21.5684H21.5688H21.5691H21.5695H21.5698H21.5702H21.5705H21.5709H21.5712H21.5716H21.5719H21.5723H21.5727H21.573H21.5734H21.5737H21.5741H21.5744H21.5748H21.5751H21.5755H21.5758H21.5762H21.5765H21.5769H21.5772H21.5776H21.5779H21.5783H21.5786H21.579H21.5793H21.5797H21.58H21.5804H21.5807H21.5811H21.5814H21.5818H21.5821H21.5825H21.5828H21.5832H21.5835H21.5839H21.5842H21.5846H21.5849H21.5853H21.5856H21.586H21.5863H21.5867H21.587H21.5874H21.5877H21.588H21.5884H21.5887H21.5891H21.5894H21.5898H21.5901H21.5905H21.5908H21.5911H21.5915H21.5918H21.5922H21.5925H21.5928H21.5932H21.5935H21.5939H21.5942H21.5945H21.5949H21.5952H21.5956H21.5959H21.5962H21.5966H21.5969H21.5972H21.5976H21.5979H21.5983H21.5986H21.5989H21.5993H21.5996H21.5999H21.6002H21.6006H21.6009H21.6012H21.6016H21.6019H21.6022H21.6026H21.6029H21.6032H21.6035H21.6039H21.6042H21.6045H21.6048H21.6052H21.6055H21.6058H21.6061H21.6065H21.6068H21.6071H21.6074H21.6077H21.6081H21.6084H21.6087H21.609H21.6093H21.6096H21.61H21.6103H21.6106H21.6109H21.6112H21.6115H21.6118H21.6121H21.6124H21.6128H21.6131H21.6134H21.6137H21.614H21.6143H21.6146H21.6149H21.6152H21.6155H21.6158H21.6161H21.6164H21.6167H21.617H21.6173H21.6176H21.6179H21.6182H21.6185H21.6188H21.6191H21.6194H21.6196H21.6199H21.6202H21.6205H21.6208H21.6211H21.6214H21.6217H21.6219H21.6222H21.6225H21.6228H21.6231H21.6234H21.6236H21.6239H21.6242H21.6245H21.6247H21.625H21.6253H21.6256H21.6258H21.6261H21.6264H21.6266H21.6269H21.6272H21.6274H21.6277H21.628H21.6282H21.6285H21.6288H21.629H21.6293H21.6295H21.6298H21.63H21.6303H21.6305H21.6308H21.6311H21.6313H21.6315H21.6318H21.632H21.6323H21.6325H21.6328H21.633H21.6333H21.6335H21.6337H21.634H21.6342H21.6345H21.6347H21.6349H21.6352H21.6354H21.6356H21.6358H21.6361H21.6363H21.6365H21.6367H21.637H21.6372H21.6374H21.6376H21.6378H21.6381H21.6383H21.6385H21.6387H21.6389H21.6391H21.6393H21.6395H21.6398H21.64H21.6402H21.6404H21.6406H21.6408H21.641H21.6412H21.6414H21.6416H21.6418H21.6419H21.6421H21.6423H21.6425H21.6427H21.6429H21.6431H21.6433H21.6434H21.6436H21.6438H21.644H21.6441H21.6443H21.6445H21.6447H21.6448H21.645H21.6452H21.6453H21.6455H21.6457H21.6458H21.646H21.6461H21.6463H21.6465H21.6466H21.6468H21.6469H21.6471H21.6472H21.6474H21.6475H21.6476H21.6478H21.6479H21.6481H21.6482H21.6483H21.6485H21.6486H21.6487H21.6489H21.649H21.6491H21.6492H21.6494H21.6495H21.6496H21.6497H21.6498H21.65H21.6501H21.6502H21.6503H21.6504H21.6505H21.6506H21.6507H21.6508H21.6509H21.651H21.6511H21.6512H21.6513H21.6514H21.6515H21.6516H21.6517H21.6517H21.6518H21.6519H21.652H21.6521H21.6521H21.6522H21.6523H21.6524H21.6524H21.6525H21.6526H21.6526H21.6527H21.6527H21.6528H21.6529H21.6529H21.653H21.653H21.6531H21.6531H21.6532H21.6532H21.6532H21.6533H21.6533H21.6534H21.6534H21.6534H21.6535H21.6535H21.6535H21.6535H21.6536H21.6536H21.6536H21.6536H21.6536H21.6536H21.6536H21.6537H21.6537H21.6537H21.6537H35.7792H35.7919H35.8046H35.8172H35.8299H35.8426H35.8552H35.8679H35.8806H35.8933H35.9059H35.9186H35.9313H35.9439H35.9566H35.9693H35.982H35.9946H36.0073H36.02H36.0327H36.0453H36.058H36.0707H36.0833H36.096H36.1087H36.1214H36.134H36.1467H36.1594H36.1721H36.1847H36.1974H36.2101H36.2227H36.2354H36.2481H36.2608H36.2734H36.2861H36.2988H36.3114H36.3241H36.3368H36.3495H36.3621H36.3748H36.3875H36.4002H36.4128H36.4255H36.4382H36.4508H36.4635H36.4762H36.4889H36.5015H36.5142H36.5269H36.5396H36.5522H36.5649H36.5776H36.5902H36.6029H36.6156H36.6283H36.6409H36.6536H36.6663H36.6789H36.6916H36.7043H36.717H36.7296H36.7423H36.755H36.7677H36.7803H36.793H36.8057H36.8183H36.831H36.8437H36.8564H36.869H36.8817H36.8944H36.9071H36.9197H36.9324H36.9451H36.9577H36.9704H36.9831H36.9958H37.0084H37.0211H37.0338H37.0464H37.0591H37.0718H37.0845H37.0971H37.1098H37.1225H37.1352H37.1478H37.1605H37.1732H37.1858H37.1985H37.2112H37.2239H37.2365H37.2492H37.2619H37.2746H37.2872H37.2999H37.3126H37.3252H37.3379H37.3506H37.3633H37.3759H37.3886H37.4013H37.4139H37.4266H37.4393H37.452H37.4646H37.4773H37.49H37.5027H37.5153H37.528H37.5407H37.5533H37.566H37.5787H37.5914H37.604H37.6167H37.6294H37.6421H37.6547H37.6674H37.6801H37.6927H37.7054H37.7181H37.7308H37.7434H37.7561H37.7688H37.7815H37.7941H37.8068H37.8195H37.8321H37.8448H37.8575H37.8702H37.8828H37.8955H37.9082H37.9208H37.9335H37.9462H37.9589H37.9715H37.9842H37.9969H38.0096H38.0222H38.0349H38.0476H38.0602H38.0729H38.0856H38.0983H38.1109H38.1236H38.1363H38.149H38.1616H38.1743H38.187H38.1996H38.2123H38.225H38.2377H38.2503H38.263H38.2757H38.2883H38.301H38.3137H38.3264H38.339H38.3517H38.3644H38.3771H38.3897H38.4024H38.4151H38.4277H38.4404H38.4531H38.4658H38.4784H38.4911H38.5038H38.5165H38.5291H38.5418H38.5545H38.5671H38.5798H38.5925H38.6052H38.6178H38.6305H38.6432H38.6558H38.6685H38.6812H38.6939H38.7065H38.7192H38.7319H38.7446H38.7572H38.7699H38.7826H38.7952H38.8079H38.8206H38.8333H38.8459H38.8586H38.8713H38.884H38.8966H38.9093H38.922H38.9346H38.9473H38.96H38.9727H38.9853H38.998H39.0107H39.0233H39.036H39.0487H39.0614H39.074H39.0867H39.0994H39.1121H39.1247H39.1374H39.1501H39.1627H39.1754H39.1881H39.2008H39.2134H39.2261H39.2388H39.2515H39.2641H39.2768H39.2895H39.3021H39.3148H39.3275H39.3402H39.3528H39.3655H39.3782H39.3908H39.4035H39.4162H39.4289H39.4415H39.4542H39.4669H39.4796H39.4922H39.5049H39.5176H39.5302H39.5429H39.5556H39.5683H39.5809H39.5936H39.6063H39.619H39.6316H39.6443H39.657H39.6696H39.6823H39.695H39.7077H39.7203H39.733H39.7457H39.7583H39.771H39.7837H39.7964H39.809H39.8217H39.8344H39.8471H39.8597H39.8724H39.8851H39.8977H39.9104H39.9231H39.9358H39.9484H39.9611H39.9738H39.9865H39.9991H40.0118H40.0245H40.0371H40.0498H40.0625H40.0752H40.0878H40.1005H40.1132H40.1258H40.1385H40.1512H40.1639H40.1765H40.1892H40.2019H40.2146H40.2272H40.2399H40.2526H40.2652H40.2779H40.2906H40.3033H40.3159H40.3286H40.3413H40.354H40.3666H40.3793H40.392H40.4046H40.4173H40.43H40.4427H40.4553H40.468H40.4807H40.4933H40.506H40.5187H40.5314H40.544H40.5567H40.5694H40.5821H40.5947H40.6074H40.6201H40.6327H40.6454H40.6581H40.6708H40.6834H40.6961H40.7088H40.7215H40.7341H40.7468H40.7595H40.7721H40.7848H40.7975H40.8102H40.8228H40.8355H40.8482H40.8608H40.8735H40.8862H40.8989H40.9115H40.9242H40.9369H40.9496H40.9622H40.9749H40.9876H41.0002H41.0129H41.0256H41.0383H41.0509H41.0636H41.0763H41.089H41.1016H41.1143H41.127H41.1396H41.1523H41.165H41.1777H41.1903H41.203H41.2157H41.2283H41.241H41.2537H41.2664H41.279H41.2917H41.3044H41.3171H41.3297H41.3424H41.3551H41.3677H41.3804H41.3931H41.4058H41.4184H41.4311H41.4438H41.4565H41.4691H41.4818H41.4945H41.5071H41.5198H41.5325H41.5452H41.5578H41.5705H41.5832H41.5958H41.6085H41.6212H41.6339H41.6465H41.6592H41.6719H41.6846H41.6972H41.7099H41.7226H41.7352H41.7479H41.7606H41.7733H41.7859H41.7986H41.8113H41.824H41.8366H41.8493H41.862H41.8746H41.8873H41.9H41.9127H41.9253H41.938H41.9507H41.9634H41.976H41.9887H42.0014H42.014H42.0175V23.5702H42.2675C42.5521 23.5702 42.7303 23.6223 42.8378 23.6963C42.9342 23.7627 43.0009 23.8653 43.0232 24.0435C43.0412 24.2204 42.9995 24.3611 42.9251 24.4626C42.8507 24.5641 42.7305 24.6444 42.5589 24.6773C42.4317 24.7011 42.2826 24.7019 42.1033 24.7019H42.0165H41.9768H41.9371H41.8975H41.8578H41.8182H41.7785H41.7388H41.6992H41.6595H41.6199H41.5802H41.5406H41.5009H41.4612H41.4216H41.3819H41.3423H41.3026H41.263H41.2233H41.1836H41.144H41.1043H41.0647H41.025H40.9853H40.9457H40.906H40.8664H40.8267H40.7871H40.7474H40.7077H40.6681H40.6284H40.5888H40.5491H40.5095H40.4698H40.4301H40.3905H40.3508H40.3112H40.2715H40.2318H40.1922H40.1525H40.1129H40.0732H40.0336H39.9939H39.9542H39.9146H39.8749H39.8353H39.7956H39.756H39.7163H39.6766H39.637H39.5973H39.5577H39.518H39.4783H39.4387H39.399H39.3594H39.3197H39.2801H39.2404H39.2007H39.1611H39.1214H39.0818H39.0421H39.0025H38.9628H38.9231H38.8835H38.8438H38.8042H38.7645H38.7248H38.6852H38.6455H38.6059H38.5662H38.5266H38.4869H38.4472H38.4076H38.3679H38.3283H38.2886H38.249H38.2093H38.1696H38.13H38.0903H38.0507H38.011H37.9713H37.9317H37.892H37.8524H37.8127H37.7731H37.7334H37.6937H37.6541H37.6144H37.5748H37.5351H37.4955H37.4558H37.4161H37.3765H37.3368H37.2972H37.2575H37.2178H37.1782H37.1385H37.0989H37.0592H37.0196H36.9799H36.9402H36.9006H36.8609H36.8213H36.7816H36.742H36.7023H36.6626H36.623H36.5833H36.5437H36.504H36.4643H36.4247H36.385H36.3454H36.3057H36.2661H36.2264H36.1867H36.1471H36.1074H36.0678H36.0281H35.9885H35.9488H35.9091H35.8695H35.8298H35.7902H35.7505H35.7108H35.6712H35.6315H35.5919H35.5522H35.5126H35.4729H35.4332H35.3936H35.3539H35.3143H35.2746H35.235H35.1953H35.1556H35.116H35.0763H35.0367H34.997H34.9573H34.9177H34.878H34.8384H34.7987H34.7591H34.7194H34.6797H34.6401H34.6004H34.5608H34.5211H34.4815H34.4418H34.4021H34.3625H34.3228H34.2832H34.2435H34.2038H34.1642H34.1245H34.0849H34.0452H34.0056H33.9659H33.9262H33.8866H33.8469H33.8073H33.7676H33.728H33.6883H33.6486H33.609H33.5693H33.5297H33.49H33.4503H33.4107H33.371H33.3314H33.2917H33.2521H33.2124H33.1727H33.1331H33.0934H33.0538H33.0141H32.9745H32.9348H32.8951H32.8555H32.8158H32.7762H32.7365H32.6968H32.6572H32.6175H32.5779H32.5382H32.4986H32.4589H32.4192H32.3796H32.3399H32.3003H32.2606H32.221H32.1813H32.1416H32.102H32.0623H32.0227H31.983H31.9433H31.9037H31.864H31.8244H31.7847H31.7451H31.7054H31.6657H31.6261H31.5864H31.5468H31.5071H31.4674H31.4278H31.3881H31.3485H31.3088H31.2692H31.2295H31.1898H31.1502H31.1105H31.0709H31.0312H30.9916H30.9519H30.9122H30.8726H30.8329H30.7933H30.7536H30.7139H30.6743H30.6346H30.595H30.5553H30.5157H30.476H30.4363H30.3967H30.357H30.3174H30.2777H30.2381H30.1984H30.1587H30.1191H30.0794H30.0398H30.0001H29.9604H29.9208H29.8811H29.8415H29.8018H29.7622H29.7225H29.6828H29.6432H29.6035H29.5639H29.5242H29.4846H29.4449H29.4052H29.3656H29.3259H29.2863H29.2466H29.2069H29.1673H29.1276H29.088H29.0483H29.0087H28.969H28.9293H28.8897H28.85H28.8104H28.7707H28.7311H28.6914H28.6517H28.6121H28.5724H28.5328H28.4931H28.4534H28.4138H28.3741H28.3345H28.2948H28.2552H28.2155H28.1758H28.1362H28.0965H28.0569H28.0172H27.9776H27.9379H27.8982H27.8586H27.8189H27.7793H27.7396H27.6999H27.6603H27.6206H27.581H27.5413H27.5017H27.462H27.4223H27.3827H27.343H27.3034H27.2637H27.2241H27.1844H27.1447H27.1051H27.0654H27.0258H26.9861H26.9464H26.9068H26.8671H26.8275H26.7878H26.7482H26.7085H26.6688H26.6292H26.5895H26.5499H26.5102H26.4706H26.4309H26.3912H26.3516H26.3119H26.2723H26.2326H26.1929H26.1533H26.1136H26.074H26.0343H25.9947H25.955H25.9153H25.8757H25.836H25.7964H25.7567H25.7171H25.6774H25.6377H25.5981H25.5584H25.5188H25.4791H25.4394H25.3998H25.3601H25.3205H25.2808H25.2412H25.2015H25.1618H25.1222H25.0825H25.0429H25.0032H24.9636H24.9239H24.8842H24.8446H24.8049H24.7653H24.7256H24.6859H24.6463H24.6066H24.567H24.5273H24.4877H24.448H24.4083H24.3687H24.329H24.2894H24.2497H24.2101H24.1704H24.1307H24.0911H24.0514H24.0118H23.9721H23.9324H23.8928H23.8531H23.8135H23.7738H23.7342H23.6945H23.6548H23.6152H23.5755H23.5359H23.4962H23.4566H23.4169H23.3772H23.3376H23.2979H23.2583H23.2186H23.1789H23.1393H23.0996H23.06H23.0203H22.9807H22.941H22.9013H22.8617H22.822H22.7824H22.7427H22.7031H22.6634H22.6237H22.5841H22.5444H22.5048H22.4651H22.4254H22.3858H22.3461H22.3065H22.2668H22.2272H22.1875H22.1478H22.1082H22.0685H22.0289H21.9892H21.9496H21.9099H21.8702H21.8306H21.7909H21.7513H21.7116C21.4708 24.7019 21.2607 24.6914 21.0948 24.644C20.9387 24.5994 20.8474 24.5269 20.7945 24.4448C20.7404 24.3608 20.709 24.2393 20.7247 24.067C20.7401 23.8975 20.793 23.7905 20.861 23.7218C20.9294 23.6527 21.0374 23.5977 21.2088 23.5783Z" fill="#00928F" stroke="#00928F" stroke-width="0.5"/>
<path d="M31.5216 11.3382C31.9174 11.5313 32.3519 11.4154 32.5547 11.0485C32.9988 10.2664 33.3271 9.60024 33.5974 8.95334C33.694 8.72162 33.6747 8.47058 33.5298 8.26782C33.3657 8.01679 33.0567 7.8623 32.6995 7.8623C32.6705 7.88162 32.6319 7.90093 32.5836 7.92989C32.4485 8.00713 32.2554 8.11334 32.1685 8.24851C31.8112 8.84713 31.4636 9.53265 31.1161 10.334C30.9519 10.7106 31.1161 11.1451 31.5023 11.3382H31.5216Z" fill="#00928F"/>
<path d="M36.5813 15.4704L36.3313 15.4679C36.3217 16.4441 36.3217 17.4201 36.3217 18.4044V18.4055V19.1693H35.132V16.5131V16.134L34.7835 16.2833L34.5808 16.3702L34.5808 16.3702L34.5776 16.3716C32.7997 17.1628 31.0372 17.1648 29.1766 16.3891C29.1762 16.3889 29.1759 16.3887 29.1755 16.3886L29.1362 16.3717V16.2824H28.8862H28.8765L28.8252 16.5324H28.6362V19.1597H27.4561V18.2993H27.4562L27.4561 18.2963C27.4465 17.4873 27.4465 16.7072 27.4561 15.9272H27.4561V15.9242C27.4561 15.4233 27.3209 15.0382 27.0028 14.6543L27.0023 14.6538C25.7012 13.0924 25.2279 11.0689 25.7111 9.08964C26.1941 7.11123 27.5483 5.53383 29.4147 4.75301C29.7674 4.61398 30.1507 4.50147 30.5257 4.39569L30.5275 4.39521C30.6953 4.35105 30.8711 4.3048 31.0406 4.25H32.7097L32.7105 4.25029L32.713 4.25137C32.7778 4.27917 32.8611 4.31488 32.9579 4.33909L32.9579 4.33939L32.9701 4.34181C35.2834 4.79887 37.1108 6.33448 37.8616 8.44783L37.8617 8.4481C38.622 10.5805 38.1708 12.9512 36.649 14.7997L36.649 14.7997L36.6468 14.8025C36.6425 14.8079 36.638 14.8134 36.6334 14.8192C36.5802 14.8854 36.5097 14.9733 36.4531 15.0691C36.3908 15.1744 36.3313 15.3112 36.3313 15.4704H36.5813ZM36.5813 15.4704C36.5813 15.2839 36.7163 15.1155 36.8299 14.9738C36.834 14.9687 36.838 14.9637 36.842 14.9586C38.4158 13.0469 38.8889 10.5848 38.0972 8.36414M36.5813 15.4704C36.5717 16.4454 36.5717 17.4205 36.5717 18.4052V18.4055V19.1693L38.0972 8.36414M38.0972 8.36414C37.3151 6.16276 35.4131 4.56966 33.0186 4.09655C32.9413 4.07724 32.8737 4.04828 32.8062 4.01931L38.0972 8.36414ZM26.6665 10.6331V10.7367L26.6772 10.7474C26.7042 12.0892 27.2498 13.3476 28.2073 14.3051C29.1909 15.2887 30.5001 15.8266 31.8793 15.8266L31.8986 15.8266L31.8995 15.8266C34.7681 15.8164 37.1113 13.4854 37.1113 10.6235C37.1113 9.23342 36.563 7.9251 35.5811 6.9331L35.5802 6.93219C34.5884 5.94045 33.2895 5.39138 31.9082 5.39138C29.0184 5.39138 26.6665 7.74331 26.6665 10.6331Z" fill="#00928F" stroke="#00928F" stroke-width="0.5"/>
<path d="M45.1853 19.6792C45.1885 19.6792 45.1917 19.6791 45.1949 19.6791V20.8495L45.1842 19.4292M45.1853 19.6792C45.1849 19.6792 45.1846 19.6792 45.1842 19.6792V19.4292M45.1853 19.6792C45.1856 19.6792 45.186 19.6792 45.1863 19.6792L45.1842 19.4292M45.1853 19.6792C42.8962 19.6985 40.5784 19.6985 38.3382 19.6888M45.1842 19.4292C42.896 19.4485 40.5787 19.4485 38.3387 19.4388M38.3382 19.6888H38.3387V19.4388M38.3382 19.6888H37.0546C36.9689 19.6888 36.8963 19.6772 36.8152 19.6599M38.3382 19.6888C38.338 19.6888 38.3378 19.6888 38.3376 19.6888L38.3387 19.4388M38.3387 19.4388L36.8152 19.6599M36.8152 19.6599C36.8113 19.659 36.8074 19.6582 36.8035 19.6574C36.7984 19.6562 36.7932 19.6551 36.7879 19.6539L36.8035 19.5836L36.8421 19.4099V19.6599H36.8421H36.842H36.842H36.8419H36.8419H36.8418H36.8417H36.8417H36.8416H36.8416H36.8415H36.8415H36.8414H36.8413H36.8413H36.8412H36.8412H36.8411H36.841H36.841H36.8409H36.8409H36.8408H36.8407H36.8407H36.8406H36.8405H36.8405H36.8404H36.8404H36.8403H36.8402H36.8402H36.8401H36.84H36.84H36.8399H36.8398H36.8398H36.8397H36.8397H36.8396H36.8395H36.8395H36.8394H36.8393H36.8393H36.8392H36.8391H36.8391H36.839H36.8389H36.8389H36.8388H36.8387H36.8387H36.8386H36.8385H36.8385H36.8384H36.8383H36.8383H36.8382H36.8381H36.838H36.838H36.8379H36.8378H36.8378H36.8377H36.8376H36.8376H36.8375H36.8374H36.8373H36.8373H36.8372H36.8371H36.8371H36.837H36.8369H36.8368H36.8368H36.8367H36.8366H36.8366H36.8365H36.8364H36.8363H36.8363H36.8362H36.8361H36.836H36.836H36.8359H36.8358H36.8358H36.8357H36.8356H36.8355H36.8355H36.8354H36.8353H36.8352H36.8352H36.8351H36.835H36.8349H36.8349H36.8348H36.8347H36.8346H36.8346H36.8345H36.8344H36.8343H36.8342H36.8342H36.8341H36.834H36.8339H36.8339H36.8338H36.8337H36.8336H36.8336H36.8335H36.8334H36.8333H36.8332H36.8332H36.8331H36.833H36.8329H36.8329H36.8328H36.8327H36.8326H36.8325H36.8325H36.8324H36.8323H36.8322H36.8321H36.8321H36.832H36.8319H36.8318H36.8317H36.8317H36.8316H36.8315H36.8314H36.8313H36.8313H36.8312H36.8311H36.831H36.8309H36.8309H36.8308H36.8307H36.8306H36.8305H36.8305H36.8304H36.8303H36.8302H36.8301H36.83H36.83H36.8299H36.8298H36.8297H36.8296H36.8296H36.8295H36.8294H36.8293H36.8292H36.8291H36.8291H36.829H36.8289H36.8288H36.8287H36.8286H36.8286H36.8285H36.8284H36.8283H36.8282H36.8281H36.8281H36.828H36.8279H36.8278H36.8277H36.8277H36.8276H36.8275H36.8274H36.8273H36.8272H36.8271H36.8271H36.827H36.8269H36.8268H36.8267H36.8266H36.8266H36.8265H36.8264H36.8263H36.8262H36.8261H36.8261H36.826H36.8259H36.8258H36.8257H36.8256H36.8256H36.8255H36.8254H36.8253H36.8252H36.8251H36.825H36.825H36.8249H36.8248H36.8247H36.8246H36.8245H36.8245H36.8244H36.8243H36.8242H36.8241H36.824H36.8239H36.8239H36.8238H36.8237H36.8236H36.8235H36.8234H36.8233H36.8233H36.8232H36.8231H36.823H36.8229H36.8228H36.8228H36.8227H36.8226H36.8225H36.8224H36.8223H36.8222H36.8222H36.8221H36.822H36.8219H36.8218H36.8217H36.8217H36.8216H36.8215H36.8214H36.8213H36.8212H36.8211H36.8211H36.821H36.8209H36.8208H36.8207H36.8206H36.8206H36.8205H36.8204H36.8203H36.8202H36.8201H36.82H36.82H36.8199H36.8198H36.8197H36.8196H36.8195H36.8195H36.8194H36.8193H36.8192H36.8191H36.819H36.819H36.8189H36.8188H36.8187H36.8186H36.8185H36.8184H36.8184H36.8183H36.8182H36.8181H36.818H36.8179H36.8179H36.8178H36.8177H36.8176H36.8175H36.8174H36.8174H36.8173H36.8172H36.8171H36.817H36.8169H36.8169H36.8168H36.8167H36.8166H36.8165H36.8165H36.8164H36.8163H36.8162H36.8161H36.816H36.816H36.8159H36.8158H36.8157H36.8156H36.8156H36.8155H36.8154H36.8153H36.8152H36.8152ZM27.4563 19.4099H27.2063V19.4388V19.6599H27.4563V19.4388V19.4099ZM18.5542 19.6786V19.4267C18.465 19.4143 18.383 19.3913 18.3042 19.3519V19.623C18.3869 19.6521 18.4703 19.6692 18.5542 19.6786ZM18.3042 20.8495V21.0995H18.5542V20.8495H18.3042Z" fill="#00928F" stroke="#00928F" stroke-width="0.5"/>
<path d="M9.38208 50.895C5.62621 49.3116 3 45.5943 3 41.2592V33.7474C3 29.4316 5.61656 25.724 9.34346 24.1309" stroke="#00928F" stroke-width="2" stroke-miterlimit="10"/>
<path d="M26.627 53.5405V58.5516C26.627 59.3529 25.9801 59.9998 25.1787 59.9998H16.0835C15.2822 59.9998 14.6353 59.3529 14.6353 58.5516V57.4026" stroke="#00928F" stroke-width="2" stroke-miterlimit="10"/>
<path d="M16.7783 54.2744H46.7866" stroke="#00928F" stroke-width="2" stroke-miterlimit="10"/>
<path d="M36.9287 54.2744V58.542C36.9287 59.3434 37.5756 59.9903 38.377 59.9903H47.4722C48.2736 59.9903 48.9205 59.3434 48.9205 58.542V57.393" stroke="#00928F" stroke-width="2" stroke-miterlimit="10"/>
<path d="M54.1826 50.895C57.9385 49.3116 60.5647 45.5943 60.5647 41.2592V33.7474C60.5647 29.4316 57.9481 25.724 54.2212 24.1309" stroke="#00928F" stroke-width="2" stroke-miterlimit="10"/>
<path d="M52.0969 18.5795C52.7535 18.5795 53.2845 19.1106 53.2845 19.7671V55.2403C53.2845 55.8968 52.7535 56.4279 52.0969 56.4279H47.9742C47.3176 56.4279 46.7866 55.8968 46.7866 55.2403V19.7671C46.7866 19.1106 47.3176 18.5795 47.9742 18.5795H52.0969ZM52.0969 16.9961H47.9742C46.4486 16.9961 45.2031 18.2416 45.2031 19.7671V55.2403C45.2031 56.7658 46.4486 58.0113 47.9742 58.0113H52.0969C53.6224 58.0113 54.868 56.7658 54.868 55.2403V19.7671C54.868 18.2416 53.6224 16.9961 52.0969 16.9961Z" fill="#FFCF55" stroke="#FFCF55" stroke-width="0.3"/>
<path d="M15.5911 18.5795C16.2476 18.5795 16.7787 19.1106 16.7787 19.7671V55.2403C16.7787 55.8968 16.2476 56.4279 15.5911 56.4279H11.4683C10.8118 56.4279 10.2807 55.8968 10.2807 55.2403V19.7671C10.2807 19.1106 10.8118 18.5795 11.4683 18.5795H15.5911ZM15.5911 16.9961H11.4683C9.94278 16.9961 8.69727 18.2416 8.69727 19.7671V55.2403C8.69727 56.7658 9.94278 58.0113 11.4683 58.0113H15.5911C17.1166 58.0113 18.3621 56.7658 18.3621 55.2403V19.7671C18.3621 18.2416 17.1166 16.9961 15.5911 16.9961Z" fill="#FFCF55" stroke="#FFCF55" stroke-width="0.3"/>
</svg>
