<svg width="64" height="64" viewBox="0 0 64 64" fill="none" xmlns="http://www.w3.org/2000/svg">
<path d="M36.667 16.7324C36.667 16.1223 36.667 15.4912 36.667 14.8706C36.667 15.5017 36.667 16.2486 36.667 16.7324Z" stroke="#00928F" stroke-width="0.2"/>
<path d="M29.9627 44.281L29.8481 44.5545H35.0922C41.0335 44.5545 46.9845 44.5545 52.9354 44.565C53.499 44.565 53.8619 44.3441 54.1581 43.8497C55.2183 42.0194 55.3234 40.1682 54.4733 38.3169C53.5754 36.3709 52.0471 35.3401 50.0507 35.3296C44.7684 35.3085 39.4001 35.319 34.2134 35.319H29.3418C29.2654 35.319 29.1794 35.3401 29.0935 35.3506L28.6445 35.4242L28.8547 35.6872C30.9466 38.3063 31.3096 41.1254 29.9627 44.281ZM33.0385 37.1177C33.8408 37.0862 34.6719 37.0862 35.4838 37.1177C35.8945 37.1388 36.1907 37.4649 36.1907 37.9066C36.1907 38.3379 35.8945 38.6535 35.4647 38.6955C35.1972 38.7166 34.9202 38.7061 34.6432 38.6955C34.519 38.6955 34.4044 38.6955 34.2802 38.6955H34.2611C34.137 38.6955 34.0032 38.6955 33.8791 38.6955C33.602 38.6955 33.3155 38.7061 33.0385 38.685C32.5991 38.6535 32.3412 38.3484 32.3412 37.8961C32.3412 37.4333 32.6086 37.1388 33.0385 37.1177Z" stroke="#00928F" stroke-width="0.2"/>
<path d="M38.52 8.31711L38.1475 8.43282L38.4722 8.66423C39.3224 9.25328 41.271 9.5478 43.1623 9.5478C45.0536 9.5478 47.05 9.23224 47.5562 8.60112L47.7377 8.3697L47.4703 8.28555C44.4805 7.35991 41.548 7.37043 38.5104 8.31711H38.52Z" stroke="#00928F" stroke-width="0.2"/>
<path d="M36.6286 33.6567H26.876V33.6682H36.6286V33.6567Z" stroke="#00928F" stroke-width="0.2"/>
<path d="M20.8783 44.5963C21.8049 45.6272 23.0466 46.1952 24.3744 46.1952C25.6926 46.1952 26.9343 45.6272 27.88 44.5858C28.8161 43.555 29.3223 42.1876 29.3223 40.7465C29.3223 37.7697 27.1158 35.3294 24.4221 35.3188H24.3935C21.6903 35.3188 19.4742 37.7381 19.4551 40.736C19.4551 42.1876 19.9518 43.555 20.8879 44.5858L20.8783 44.5963Z" stroke="#00928F" stroke-width="0.2"/>
<path d="M18.7473 46.1636H18.7282C17.4101 46.1636 16.1778 46.7211 15.2417 47.7414C14.3056 48.7617 13.7803 50.1291 13.7803 51.5807C13.7803 53.0218 14.2865 54.3892 15.2226 55.4306C16.1587 56.4719 17.4005 57.0399 18.7187 57.0399C20.0369 57.0399 21.2786 56.4614 22.2147 55.42C23.1508 54.3787 23.6571 53.0218 23.6475 51.5807C23.6284 48.6144 21.4219 46.1846 18.7378 46.1741L18.7473 46.1636Z" stroke="#00928F" stroke-width="0.2"/>
<path d="M11.6787 56.977H14.4488L13.0542 55.0205L11.6787 56.977Z" stroke="#00928F" stroke-width="0.2"/>
<path d="M36.6675 14.8706C36.5815 14.839 36.5051 14.8074 36.4287 14.7864C34.5756 14.1658 32.5792 13.9554 30.3249 14.1448C29.0736 14.2499 27.6217 14.4182 26.3417 15.1756C25.6635 15.5753 25.3579 16.1328 25.3674 16.9743C25.3865 19.5198 25.3865 22.1179 25.377 24.6214V33.6464H26.8766V18.489L27.0963 18.5521C30.2007 19.4462 33.2478 19.4462 36.4191 18.5521L36.6388 18.489V33.6359H38.1576V15.6069C37.6991 15.3018 37.1642 15.0599 36.677 14.8811L36.6675 14.8706ZM36.3332 16.9112C34.8048 17.3845 33.2861 17.6159 31.7673 17.6159C30.2485 17.6159 28.7488 17.3845 27.211 16.9217L26.8289 16.806L27.1632 16.5746C28.8348 15.4175 34.3272 15.407 36.3618 16.5535L36.6579 16.7218L36.7535 16.7744L36.3332 16.9007V16.9112Z" fill="#FFCF55" stroke="#FFCF55" stroke-width="0.5"/>
<path d="M34.6427 22.0863C34.6236 21.6234 34.4039 21.3605 33.974 21.2974C33.9454 21.2974 33.9167 21.2974 33.8881 21.2974C33.7257 21.2974 33.5728 21.3605 33.4487 21.4762C33.3054 21.6024 33.229 21.7917 33.2194 22.0021C33.1717 23.0855 33.1717 24.0322 33.2194 24.8842C33.2481 25.3155 33.5346 25.5574 33.9549 25.5364C34.3752 25.5048 34.6045 25.2419 34.6331 24.7791C34.6522 24.4635 34.6427 24.1374 34.6331 23.8219C34.6331 23.6851 34.6331 23.5378 34.6331 23.4011V23.0119C34.6331 22.7069 34.6331 22.3913 34.6331 22.0863H34.6427Z" fill="#FFCF55" stroke="#FFCF55" stroke-width="0.5"/>
<path d="M20.1331 35.3506H17.3057L18.7194 37.3386L20.1331 35.3506Z" stroke="#00928F" stroke-width="0.2"/>
<path d="M22.999 56.977H25.7787L24.3841 55.0205L22.999 56.977Z" stroke="#00928F" stroke-width="0.2"/>
<path d="M33.5343 47.7519C32.5982 46.7316 31.366 46.1636 30.0478 46.1636C28.7296 46.1636 27.4878 46.7316 26.5708 47.7519C25.6443 48.7827 25.138 50.1502 25.1476 51.6228C25.1571 54.5996 27.3637 57.0294 30.0478 57.0294C31.366 57.0294 32.6077 56.4614 33.5438 55.4411C34.4799 54.4102 34.9958 53.0428 34.9958 51.6017C34.9958 50.1502 34.4799 48.7827 33.5534 47.7624L33.5343 47.7519Z" stroke="#00928F" stroke-width="0.2"/>
<path d="M10.8862 47.7519C9.95965 46.7316 8.72743 46.1636 7.40925 46.1636C4.71557 46.1636 2.49949 48.5724 2.47084 51.5281C2.46128 52.9902 2.96754 54.3682 3.89409 55.4095C4.82064 56.4403 6.0433 57.0189 7.35193 57.0294H7.39014C8.69877 57.0294 9.93099 56.4719 10.8575 55.4621C11.7936 54.4418 12.3095 53.0744 12.319 51.6228C12.319 50.1502 11.8223 48.7722 10.8862 47.7519Z" stroke="#00928F" stroke-width="0.2"/>
<path d="M13.0546 46.195C14.3824 46.195 15.6146 45.6269 16.5507 44.5961C17.4772 43.5653 17.9835 42.1979 17.9835 40.7358C17.9644 37.759 15.7674 35.3291 13.0833 35.3081H13.0642C11.7555 35.3081 10.5233 35.8656 9.58723 36.8964C8.64157 37.9273 8.12576 39.2842 8.11621 40.7358C8.11621 42.1768 8.62247 43.5442 9.55857 44.5751C10.4947 45.6059 11.7364 46.1844 13.0642 46.1844L13.0546 46.195Z" stroke="#00928F" stroke-width="0.2"/>
<path d="M58.6948 47.226C57.816 46.5002 56.7557 46.1426 55.4566 46.1426H55.4375C50.4131 46.1531 45.3792 46.1426 40.3548 46.1426H34.3179L34.5472 46.4476C37.0976 49.9188 37.088 53.2743 34.5281 56.7034L34.2988 57.0189H37.2122C38.6737 57.0189 40.1351 57.0189 41.587 57.0189C41.5966 57.0189 41.6061 57.0189 41.6253 57.0189C42.5327 57.0189 50.3272 57.0189 51.2346 57.0189C52.7725 57.0189 54.3104 57.0189 55.8483 57.0084C57.9593 56.9874 59.8219 55.4621 60.4619 53.2006C61.0923 51.0022 60.3855 48.5934 58.7043 47.205L58.6948 47.226ZM41.2241 49.6348C40.9375 49.6558 40.6509 49.6453 40.3644 49.6348C40.2402 49.6348 40.1065 49.6348 39.9823 49.6348H39.8104C39.7339 49.6348 39.6671 49.6348 39.5907 49.6348C39.3041 49.6348 39.0175 49.6348 38.731 49.6348C38.1961 49.6137 38.0623 49.214 38.0528 48.888C38.0337 48.4251 38.2629 48.1096 38.6546 48.078C39.5811 48.0254 40.479 48.0254 41.3196 48.078C41.4915 48.0885 41.6348 48.1622 41.7303 48.2884C41.8449 48.4357 41.8927 48.6565 41.8832 48.909C41.8545 49.3508 41.6348 49.5927 41.2336 49.6137L41.2241 49.6348Z" stroke="#00928F" stroke-width="0.2"/>
<path d="M59.6878 46.0584C58.5798 45.1012 57.3093 44.6068 55.8097 44.5437H55.5422L55.6568 44.2702C56.8126 41.7036 56.7458 39.2738 55.4753 37.0333C54.2145 34.8139 52.2563 33.6989 49.6486 33.6989H49.4193V19.8668C49.4193 19.8142 49.4193 19.7511 49.4193 19.688C49.4193 15.9539 49.4193 17.1635 49.4193 16.2379C49.4193 13.7449 49.4193 11.252 49.4193 8.75906C49.4193 8.08587 49.1805 7.59149 48.6838 7.26541C48.2444 6.9814 47.8528 6.78155 47.4803 6.65532C45.7227 6.06628 43.7836 5.87694 41.5485 6.07679C40.3353 6.18198 38.9312 6.3608 37.6703 7.07607C36.9539 7.4863 36.6292 8.07535 36.6387 8.96944C36.6578 10.9364 36.6578 12.9139 36.6578 14.8704C37.145 15.0492 37.6703 15.2912 38.1384 15.5962V10.4105L38.3581 10.4736C41.4434 11.3887 44.5191 11.3993 47.7573 10.4736L47.977 10.4105V13.8186C47.977 15.6909 47.977 18.2469 47.977 22.1073C47.977 23.3695 47.977 24.6423 47.977 25.9045V33.6463H36.6292L26.8765 33.6568L25.3673 33.6463V33.6989H24.4025C23.2276 33.6989 22.0527 33.6989 20.8778 33.6989C18.2606 33.6989 15.5478 33.6779 12.8828 33.7305C11.0774 33.762 9.37715 34.6561 8.20225 36.1813C7.01779 37.7276 6.49243 39.7472 6.75989 41.7457C6.8363 42.3348 7.00824 42.9133 7.17063 43.4813C7.24704 43.7443 7.32346 44.0177 7.39032 44.2807L7.44763 44.5016L7.23749 44.5226C4.29546 44.8066 2.30863 46.4581 1.32477 49.4244C1.2388 49.6978 1.16238 49.9818 1.09552 50.2553C1.06686 50.3816 1.02866 50.5078 1 50.634V52.4537C1.03821 52.5169 1.06686 52.58 1.08597 52.6641C1.92655 56.6297 4.21904 58.6387 7.88703 58.6387H41.9592H43.3825C43.4684 58.6387 43.583 58.6387 43.6881 58.6387C43.7359 58.6387 43.7741 58.6387 43.8218 58.6387C43.9269 58.6387 44.032 58.6493 44.1084 58.6387C46.8785 58.6387 54.2145 58.6387 55.9147 58.6177C58.5798 58.5756 60.9487 56.6402 61.8084 53.8001C62.6585 50.9916 61.8084 47.8781 59.6974 46.0479L59.6878 46.0584ZM47.5663 8.60128C47.06 9.2324 45.1496 9.54796 43.1723 9.54796C41.195 9.54796 39.3228 9.25344 38.4823 8.66439L38.1575 8.43298L38.53 8.31728C41.5676 7.37059 44.5 7.36008 47.4898 8.28572L47.7573 8.36987L47.5758 8.60128H47.5663ZM29.0926 35.3609C29.1881 35.3398 29.2645 35.3293 29.3409 35.3293H34.2125C39.3992 35.3293 44.7675 35.3293 50.0498 35.3293C52.0366 35.3293 53.5649 36.3706 54.4724 38.3166C55.3225 40.1574 55.2174 42.0192 54.1572 43.8494C53.8611 44.3543 53.4981 44.5647 52.9345 44.5647C46.9836 44.5437 41.0422 44.5542 35.0913 44.5542H29.8472L29.9618 44.2807C31.3182 41.1251 30.9552 38.3061 28.8538 35.6869L28.6436 35.424L29.0926 35.3503V35.3609ZM24.393 35.3293H24.4216C27.1153 35.3503 29.3218 37.7802 29.3218 40.7569C29.3218 42.198 28.8156 43.5654 27.8795 44.5963C26.9434 45.6271 25.7016 46.2056 24.3739 46.2056C23.0461 46.2056 21.8139 45.6376 20.8778 44.6068C19.9513 43.576 19.445 42.2085 19.445 40.7569C19.4641 37.7591 21.6706 35.3398 24.3834 35.3398L24.393 35.3293ZM20.1328 35.3609L18.7191 37.3489L17.3149 35.3609H20.1423H20.1328ZM9.58729 36.9176C10.5234 35.8973 11.7556 35.3293 13.0642 35.3293H13.0833C15.7675 35.3398 17.9644 37.7696 17.9835 40.7569C17.9835 42.219 17.4773 43.5865 16.5507 44.6173C15.6242 45.6481 14.3824 46.2162 13.0547 46.2162C11.7365 46.2162 10.4852 45.6481 9.54909 44.6068C8.61298 43.576 8.10673 42.2085 8.10673 40.7675C8.10673 39.3159 8.63209 37.959 9.57774 36.9281L9.58729 36.9176ZM7.39032 57.0399H7.35211C6.04348 57.0294 4.81127 56.4508 3.89427 55.42C2.95817 54.3787 2.46146 53.0007 2.47102 51.5386C2.49967 48.5829 4.7062 46.1741 7.40943 46.1741C8.72761 46.1741 9.96938 46.7421 10.8864 47.7624C11.8129 48.7932 12.3192 50.1712 12.3192 51.6333C12.3192 53.0954 11.7938 54.4523 10.8577 55.4726C9.93117 56.4824 8.69895 57.0399 7.39032 57.0399ZM11.6887 56.9768L13.0642 55.0203L14.4684 56.9768H11.6983H11.6887ZM18.7286 57.0399C17.4104 57.0399 16.1687 56.4719 15.2326 55.4305C14.2965 54.3997 13.7806 53.0323 13.7902 51.5807C13.7902 50.1291 14.3156 48.7617 15.2517 47.7414C16.1878 46.721 17.42 46.1636 18.7382 46.1636H18.7573C21.4509 46.1741 23.6479 48.6039 23.667 51.5702C23.667 53.0112 23.1608 54.3787 22.2342 55.4095C21.2981 56.4508 20.0563 57.0294 18.7382 57.0294L18.7286 57.0399ZM23.0079 56.9873L24.393 55.0308L25.7876 56.9873H23.0079ZM30.0478 57.0399C27.3541 57.0399 25.1571 54.6101 25.1476 51.6333C25.1476 50.1712 25.6443 48.7932 26.5708 47.7624C27.4974 46.7421 28.7296 46.1741 30.0478 46.1741C31.366 46.1741 32.6077 46.7421 33.5343 47.7624C34.4704 48.7932 34.9766 50.1501 34.9766 51.6017C34.9766 53.0533 34.4608 54.4207 33.5247 55.4411C32.5886 56.4719 31.3469 57.0294 30.0287 57.0294L30.0478 57.0399ZM60.4615 53.2321C59.8215 55.4831 57.9684 57.0083 55.8479 57.0399C54.31 57.0609 52.7721 57.0504 51.2342 57.0504C50.3268 57.0504 42.5323 57.0504 41.6249 57.0504C41.6153 57.0504 41.6058 57.0504 41.5867 57.0504C40.1252 57.0504 38.6637 57.0504 37.2118 57.0504H34.2985L34.5277 56.7454C37.0876 53.3163 37.0876 49.9608 34.5468 46.4896L34.3176 46.1846H40.3545C45.3884 46.1846 50.4128 46.1846 55.4371 46.1846H55.4562C56.7553 46.1846 57.8156 46.5422 58.6944 47.268C60.3756 48.6565 61.0824 51.0548 60.452 53.2637L60.4615 53.2321Z" fill="#00928F" stroke="#00928F" stroke-width="0.3"/>
<path d="M41.3001 48.1098C40.4596 48.0467 39.5617 48.0467 38.6351 48.1098C38.2435 48.1309 38.0142 48.4464 38.0333 48.9198C38.0524 49.2459 38.1766 49.635 38.7115 49.6666C38.9981 49.6771 39.2847 49.6666 39.5712 49.6666C39.6476 49.6666 39.7145 49.6666 39.7909 49.6666H39.9628C40.087 49.6666 40.2208 49.6666 40.3449 49.6666C40.6315 49.6666 40.9181 49.6666 41.2046 49.6666C41.6058 49.635 41.8255 49.4036 41.8542 48.9619C41.8733 48.7094 41.8159 48.4885 41.7013 48.3412C41.6058 48.215 41.4625 48.1519 41.2906 48.1309L41.3001 48.1098Z" fill="#00928F" stroke="#00928F" stroke-width="0.2"/>
<path d="M44.7381 17.2792C44.8719 17.4054 45.0534 17.458 45.2922 17.4475C45.7125 17.4159 45.9322 17.1635 45.9513 16.6901C45.9704 16.3851 45.9608 16.0906 45.9513 15.7855C45.9513 15.6488 45.9513 15.5121 45.9513 15.3753V14.944C45.9513 14.6285 45.9513 14.3129 45.9513 13.9974C45.9322 13.524 45.7029 13.261 45.2922 13.2295C45.2635 13.2295 45.2444 13.2295 45.2158 13.2295C45.0247 13.2295 44.8623 13.2926 44.7477 13.3978C44.6331 13.5135 44.5662 13.6713 44.5567 13.8711C44.4993 14.8389 44.4993 15.8276 44.5567 16.8164C44.5662 17.0162 44.6331 17.174 44.7477 17.2792H44.7381Z" fill="#00928F" stroke="#00928F" stroke-width="0.2"/>
<path d="M33.0274 38.6847C33.3044 38.7057 33.5909 38.7057 33.868 38.6952C33.9921 38.6952 34.1259 38.6952 34.25 38.6952H34.2691C34.3933 38.6952 34.5079 38.6952 34.6321 38.6952C34.9091 38.6952 35.1861 38.7057 35.4536 38.6952C35.8739 38.6637 36.17 38.3376 36.1796 37.9063C36.1796 37.4645 35.8834 37.1385 35.4727 37.1174C34.6608 37.0859 33.8393 37.0859 33.0274 37.1174C32.588 37.1385 32.3301 37.4225 32.3301 37.8958C32.3301 38.3586 32.588 38.6531 33.0274 38.6847Z" fill="#00928F" stroke="#00928F" stroke-width="0.2"/>
</svg>
