<svg width="64" height="64" viewBox="0 0 64 64" fill="none" xmlns="http://www.w3.org/2000/svg">
<g clip-path="url(#clip0_5187_37175)">
<path d="M28.11 61H21.56C21.18 60.6485 20.71 60.354 20.45 59.936C18.51 56.744 13.75 56.687 11.76 59.8315C11.48 60.2685 11.04 60.6105 10.68 61H4.14C3.28 60.6675 3 60.05 3 59.195C3.02 50.36 3 41.5345 3.01 32.6995C3.01 32.5 3.01 32.291 3.06 32.0915C3.17 31.645 3.49 31.436 3.96 31.4645C4.4 31.493 4.68 31.7305 4.74 32.158C4.77 32.3765 4.76 32.6045 4.76 32.823C4.76 41.411 4.76 49.999 4.76 58.5965V59.328C6.5 59.328 8.15 59.328 9.81 59.309C9.96 59.309 10.17 59.1285 10.26 58.9765C13.02 54.749 19.12 54.7585 21.91 58.9955C22.02 59.157 22.29 59.309 22.49 59.309C23.81 59.3375 25.14 59.328 26.47 59.328C26.77 59.328 27.07 59.328 27.4 59.328V58.625C27.4 41.962 27.4 25.3085 27.4 8.6455C27.4 8.5315 27.44 8.408 27.4 8.313C27.31 8.142 27.21 7.9045 27.04 7.838C23.8 6.527 20.43 5.767 16.9 5.672C12.91 5.558 9.08 6.28 5.39 7.7145C4.92 7.895 4.76 8.104 4.76 8.5885C4.78 15.0105 4.77 21.423 4.77 27.845C4.77 28.0635 4.77 28.2915 4.74 28.51C4.67 28.9375 4.38 29.1655 3.94 29.175C3.5 29.194 3.18 28.985 3.08 28.5765C3.02 28.3485 3.02 28.1015 3.02 27.8545C3.02 22.069 3.02 16.274 3.02 10.4885C3.02 9.6145 3.02 8.7405 3.02 7.876C3.02 7.249 3.28 6.7455 3.91 6.489C6.16 5.596 8.48 4.8455 10.91 4.456C12.04 4.266 13.18 4.152 14.31 4C15.48 4 16.65 4 17.82 4C17.97 4.0285 18.12 4.0855 18.27 4.095C21.35 4.2945 24.29 5.026 27.16 6.0805C28.37 6.527 29.45 6.964 29.12 8.5125H32.23C32.23 8.275 32.23 8.0565 32.23 7.838C32.26 7.23 32.53 6.755 33.13 6.5175C35.43 5.596 37.78 4.817 40.26 4.4465C41.35 4.285 42.45 4.152 43.55 4.0095C44.72 4.0095 45.89 4.0095 47.06 4.0095C47.19 4.038 47.32 4.0855 47.45 4.095C50.59 4.285 53.58 5.0545 56.51 6.109C57.71 6.546 58.55 7.0875 58.42 8.4365C58.42 8.446 58.44 8.465 58.45 8.484C58.47 8.4935 58.48 8.5125 58.5 8.5125C58.83 8.522 59.16 8.5315 59.49 8.541C60.09 8.5695 60.45 8.883 60.45 9.3675C60.45 9.8425 60.07 10.175 59.48 10.2035C59.14 10.2225 58.79 10.2035 58.38 10.2035C58.38 11.258 58.38 12.2555 58.38 13.253C58.38 13.956 58.06 14.3455 57.5 14.3455C56.95 14.3455 56.63 13.9655 56.62 13.2625C56.62 11.6665 56.61 10.0705 56.62 8.4745C56.62 8.1135 56.52 7.9235 56.15 7.7715C48.89 4.9405 41.63 4.95 34.38 7.8C34.03 7.9425 33.87 8.104 34.07 8.522C34.27 8.522 34.5 8.522 34.73 8.522C40.89 8.522 47.05 8.522 53.21 8.522C53.42 8.522 53.64 8.522 53.85 8.5315C54.32 8.5695 54.61 8.826 54.65 9.2725C54.69 9.7475 54.43 10.0515 53.95 10.156C53.72 10.2035 53.49 10.194 53.25 10.194C47.09 10.194 40.93 10.194 34.77 10.194H34.01V13.8705C34.27 13.8705 34.5 13.8705 34.73 13.8705C39.47 13.8705 44.2 13.8705 48.94 13.8705C49.35 13.8705 49.77 13.8705 50.16 13.9655C51.81 14.3455 52.85 15.647 52.86 17.3665C52.87 19.9315 52.86 22.487 52.86 25.052C52.86 25.2705 52.86 25.4795 52.86 25.7455C53.26 25.7455 53.57 25.717 53.88 25.7455C54.39 25.8025 54.7 26.173 54.65 26.629C54.6 27.104 54.31 27.3605 53.81 27.389C53.51 27.3985 53.21 27.389 52.91 27.389V37.0505C53.21 37.0505 53.47 37.0505 53.72 37.0505C54.29 37.0695 54.64 37.3735 54.66 37.839C54.68 38.333 54.32 38.6845 53.74 38.713C53.46 38.732 53.17 38.713 52.86 38.713C52.86 39.0075 52.86 39.207 52.86 39.416C52.86 40.86 52.86 42.3135 52.86 43.7575C52.86 44.413 52.52 44.793 51.99 44.8025C51.45 44.8025 51.12 44.432 51.11 43.7765C51.11 43.1685 51.11 42.551 51.11 41.943C51.11 40.8885 51.11 39.834 51.11 38.77H48.91C48.91 41.6675 48.93 44.527 48.9 47.3865C48.89 48.3555 48.75 49.315 48.67 50.303C50.38 50.569 51.27 49.524 51.11 48.1085C51.11 48.0515 51.11 47.9945 51.11 47.9375C51.14 47.377 51.44 47.073 51.95 47.054C52.45 47.0445 52.79 47.3485 52.86 47.8805C53.14 50.2555 51.54 51.975 49.04 51.975C44.26 51.975 39.49 51.975 34.71 51.975H34.01V54.863H34.73C40.91 54.863 47.09 54.863 53.27 54.863C53.46 54.863 53.66 54.8535 53.85 54.863C54.34 54.92 54.64 55.186 54.66 55.661C54.68 56.1455 54.38 56.421 53.91 56.5065C53.7 56.5445 53.48 56.5255 53.27 56.5255C51.72 56.5255 50.17 56.5255 48.44 56.5255C49.69 57.2475 50.58 58.0645 51.23 59.1285C51.3 59.252 51.59 59.2995 51.78 59.309C53.12 59.328 54.47 59.309 55.82 59.309H56.64C56.64 58.9955 56.64 58.777 56.64 58.5585C56.64 45.0305 56.64 31.512 56.64 17.984C56.64 17.7655 56.63 17.5375 56.65 17.319C56.7 16.863 56.99 16.616 57.46 16.578C57.9 16.5495 58.21 16.768 58.33 17.1765C58.39 17.3665 58.39 17.5755 58.39 17.7845C58.39 20.2165 58.39 22.6485 58.39 25.0805C58.39 25.28 58.39 25.4795 58.39 25.736C58.82 25.736 59.19 25.717 59.55 25.736C60.1 25.7645 60.46 26.1065 60.46 26.572C60.46 27.047 60.12 27.37 59.56 27.3985C59.2 27.4175 58.83 27.3985 58.43 27.3985V37.0505C58.81 37.0505 59.16 37.0505 59.51 37.0505C60.1 37.0695 60.47 37.402 60.47 37.8865C60.47 38.3615 60.08 38.694 59.5 38.713C59.15 38.7225 58.81 38.713 58.44 38.713V54.8535C58.83 54.8535 59.18 54.8535 59.52 54.8535C60.1 54.8725 60.48 55.2145 60.47 55.699C60.46 56.155 60.09 56.4875 59.54 56.516C59.18 56.535 58.81 56.516 58.39 56.516C58.39 57.447 58.36 58.321 58.39 59.1855C58.42 60.0405 58.1 60.658 57.24 60.981H50.69C50.33 60.5915 49.89 60.24 49.61 59.803C47.65 56.7155 42.95 56.7155 41 59.803C40.72 60.24 40.29 60.5915 39.92 60.981H33.37C32.51 60.658 32.19 60.05 32.22 59.195C32.25 58.321 32.22 57.4375 32.22 56.554H29.14C29.14 57.3995 29.1 58.207 29.15 59.0145C29.2 59.8885 28.95 60.5725 28.1 60.981L28.11 61ZM40.75 50.2935C42.32 50.531 43.27 49.695 43.23 48.08C43.15 45.173 43.21 42.2565 43.21 39.3495V38.7605H41V39.397C41 42.2375 41.02 45.0685 40.99 47.909C40.99 48.688 40.84 49.467 40.76 50.303L40.75 50.2935ZM37.04 38.7415C37.04 40.043 37.08 41.2875 37.04 42.5225C36.94 45.1065 37.34 47.719 36.75 50.284C38.29 50.512 39.32 49.7995 39.27 48.061C39.19 45.154 39.25 42.247 39.25 39.34V38.7415H37.05H37.04ZM44.95 38.7415C44.95 40.9265 44.99 43.064 44.94 45.192C44.9 46.8925 45.26 48.6215 44.56 50.284C46.52 50.4075 47.16 49.828 47.16 48.0135C47.16 45.1255 47.16 42.228 47.16 39.34C47.16 39.15 47.16 38.9505 47.16 38.751H44.95V38.7415ZM29.17 50.2935C30.58 50.36 31.34 49.695 31.34 48.4125C31.34 45.3345 31.34 42.2565 31.34 39.1785C31.34 39.036 31.31 38.8935 31.29 38.77H29.17V50.2935ZM32.85 50.303C34.38 50.5025 35.36 49.79 35.31 48.004C35.23 45.135 35.29 42.266 35.29 39.397V38.77H33.1V39.4825C33.1 42.19 33.12 44.888 33.09 47.5955C33.08 48.4885 32.94 49.3815 32.85 50.303ZM36.8 15.571C36.88 16.4165 37.02 17.1955 37.03 17.9745C37.06 20.3495 37.04 22.715 37.04 25.09C37.04 25.2895 37.04 25.489 37.04 25.698H39.17C39.2 25.6315 39.22 25.5935 39.22 25.565C39.22 22.753 39.25 19.9315 39.2 17.1195C39.2 16.7395 38.93 16.312 38.65 16.008C38.13 15.438 37.39 15.533 36.79 15.571H36.8ZM40.99 25.6885H43.2C43.2 22.9335 43.2 20.2355 43.2 17.528C43.2 16.0175 42.21 15.286 40.79 15.59C40.86 16.54 40.97 17.471 40.99 18.402C41.02 20.625 40.99 22.848 40.99 25.071V25.679V25.6885ZM47.16 25.7075V25.09C47.16 22.582 47.16 20.0835 47.16 17.5755C47.16 16.027 46.19 15.286 44.73 15.59C44.81 16.483 44.93 17.357 44.94 18.231C44.97 20.511 44.95 22.791 44.95 25.071V25.698H47.16V25.7075ZM51.03 25.7075C51.07 25.6125 51.1 25.584 51.1 25.546C51.1 22.7625 51.13 19.9885 51.08 17.205C51.08 16.7775 50.77 16.293 50.46 15.951C49.96 15.4095 49.22 15.5235 48.69 15.552C48.77 16.559 48.89 17.5375 48.91 18.5255C48.94 20.7105 48.92 22.905 48.92 25.09C48.92 25.2895 48.92 25.4795 48.92 25.7075H51.04H51.03ZM29.17 15.5995V25.698H31.25C31.28 25.6315 31.32 25.603 31.32 25.565C31.32 22.753 31.36 19.9315 31.31 17.1195C31.29 16.0555 30.37 15.4475 29.17 15.5995ZM44.98 27.427V37.0125H47.1V27.427H44.98ZM43.15 37.0315V27.446H41.02V37.0315H43.15ZM29.18 27.4365V37.0315H31.28V27.4365H29.18ZM48.92 37.0125H51.04V27.4555H48.92V37.0125ZM39.18 37.0315V27.446H37.06V37.0315H39.18ZM35.25 25.7075C35.25 22.772 35.27 19.903 35.24 17.034C35.24 16.312 34.59 15.685 33.86 15.59C33.48 15.5425 33.09 15.59 32.86 15.59C32.94 16.5495 33.06 17.4995 33.08 18.4495C33.11 20.6725 33.09 22.8955 33.09 25.1185V25.7265H35.26L35.25 25.7075ZM35.23 27.446H33.13V37.022H35.23V27.446ZM34.01 56.5635V59.3185C35.72 59.3185 37.39 59.3185 39.06 59.3185C39.17 59.3185 39.32 59.233 39.38 59.1475C40.01 58.074 40.9 57.257 42.11 56.573H34.01V56.5635ZM32.18 13.8515V10.232H29.18V13.8515H32.18ZM32.18 54.844V52.013H29.17V54.844H32.18Z" fill="#00928F"/>
<path d="M10.3898 20.9385C7.98984 20.9385 6.03984 19.0765 6.04984 16.806C6.05984 14.5355 8.02984 12.6735 10.4198 12.6925C12.7798 12.702 14.7198 14.5545 14.7298 16.806C14.7398 19.086 12.7898 20.9385 10.3898 20.9385ZM10.3698 19.2665C11.8198 19.2665 12.9798 18.174 12.9798 16.806C12.9798 15.4665 11.8198 14.3645 10.4198 14.355C8.98984 14.355 7.80984 15.4665 7.80984 16.825C7.80984 18.1645 8.96984 19.257 10.3798 19.2665H10.3698Z" fill="#FFCF55"/>
<path d="M17.4405 47.8425C17.4405 45.5435 19.3705 43.7195 21.7905 43.729C24.1805 43.729 26.1305 45.61 26.1105 47.8805C26.0905 50.132 24.1305 51.975 21.7705 51.975C19.3705 51.975 17.4305 50.1225 17.4405 47.8425ZM19.1905 47.8425C19.1905 49.22 20.3305 50.322 21.7705 50.322C23.1705 50.322 24.3405 49.2105 24.3505 47.8805C24.3605 46.541 23.2105 45.4295 21.8105 45.4105C20.3505 45.3915 19.2005 46.465 19.1905 47.8425Z" fill="#FFCF55"/>
<path d="M10.3898 43.729C12.7898 43.729 14.7398 45.591 14.7298 47.8615C14.7098 50.1415 12.7598 51.9845 10.3598 51.975C7.99981 51.9655 6.0598 50.1035 6.0498 47.8615C6.0498 45.591 7.9998 43.729 10.3898 43.729ZM10.4098 45.401C8.9698 45.401 7.7898 46.4935 7.7998 47.852C7.7998 49.1915 8.95981 50.2935 10.3598 50.303C11.7898 50.3125 12.9698 49.201 12.9698 47.8425C12.9698 46.4935 11.8198 45.401 10.4098 45.3915V45.401Z" fill="#FFCF55"/>
<path d="M21.7605 20.9385C19.3505 20.9385 17.4305 19.0955 17.4405 16.7965C17.4405 14.507 19.4005 12.6735 21.8005 12.6925C24.1605 12.7115 26.1005 14.564 26.1105 16.8155C26.1105 19.0955 24.1705 20.948 21.7605 20.9385ZM19.1905 16.825C19.1905 18.1835 20.3205 19.257 21.7405 19.2665C23.1805 19.2665 24.3605 18.174 24.3505 16.806C24.3505 15.4475 23.1505 14.336 21.7205 14.355C20.3105 14.374 19.1805 15.4665 19.1905 16.825Z" fill="#FFCF55"/>
<path d="M25.2499 38.7223C24.7899 38.7223 24.3899 38.3708 24.3699 37.9338C24.3499 37.4588 24.7299 37.0693 25.2199 37.0693C25.6899 37.0693 26.0799 37.4113 26.1099 37.8483C26.1399 38.2948 25.7299 38.7128 25.2499 38.7223Z" fill="#00928F"/>
<path d="M11.26 55.7085C11.26 56.1645 10.82 56.554 10.34 56.5255C9.87996 56.5065 9.49996 56.117 9.50996 55.68C9.50996 55.2145 9.92996 54.844 10.42 54.863C10.89 54.882 11.26 55.262 11.25 55.699L11.26 55.7085Z" fill="#00928F"/>
<path d="M6.91018 38.7225C6.43018 38.713 6.03018 38.295 6.06018 37.8485C6.09018 37.402 6.48018 37.06 6.95018 37.0695C7.45018 37.0695 7.82018 37.459 7.79018 37.934C7.77018 38.3805 7.37018 38.732 6.91018 38.7225Z" fill="#00928F"/>
<path d="M22.6296 55.6987C22.6296 56.1452 22.2596 56.5157 21.7996 56.5347C21.3296 56.5537 20.8896 56.1547 20.8896 55.6987C20.8896 55.2427 21.2996 54.8627 21.7996 54.8722C22.2696 54.8817 22.6296 55.2427 22.6296 55.6987Z" fill="#00928F"/>
<path d="M16.0595 8.56015C15.5695 8.56015 15.1995 8.16115 15.2195 7.68615C15.2395 7.23965 15.6295 6.88815 16.0995 6.89765C16.5595 6.90715 16.9495 7.27765 16.9495 7.71465C16.9495 8.17065 16.5395 8.56015 16.0595 8.56015Z" fill="#00928F"/>
<path d="M26.1104 26.5718C26.1104 27.0278 25.7004 27.4078 25.2004 27.3888C24.7304 27.3793 24.3604 27.0183 24.3604 26.5718C24.3604 26.1253 24.7304 25.7548 25.2004 25.7453C25.6804 25.7263 26.1104 26.1253 26.1104 26.5813V26.5718Z" fill="#00928F"/>
<path d="M7.7898 26.5718C7.7898 27.0373 7.4398 27.3793 6.9598 27.3983C6.4598 27.4173 6.0598 27.0563 6.0498 26.5813C6.0498 26.1253 6.4698 25.7358 6.9498 25.7453C7.4098 25.7548 7.7798 26.1253 7.7898 26.5718Z" fill="#00928F"/>
<path d="M25.2498 10.194C24.7898 10.2035 24.3898 9.84252 24.3698 9.40552C24.3398 8.93052 24.7198 8.55052 25.2198 8.54102C25.6898 8.54102 26.0898 8.87352 26.1098 9.31052C26.1398 9.75702 25.7298 10.175 25.2498 10.194Z" fill="#00928F"/>
<path d="M7.78957 9.358C7.78957 9.833 7.38957 10.213 6.90957 10.194C6.44957 10.175 6.06957 9.795 6.05957 9.3675C6.05957 8.902 6.45957 8.5315 6.95957 8.5505C7.43957 8.56 7.78957 8.902 7.78957 9.3675V9.358Z" fill="#00928F"/>
<path d="M16.0795 54.5876C15.5995 54.5876 15.2295 54.2551 15.2195 53.7991C15.1995 53.3146 15.5695 52.9536 16.0795 52.9536C16.5495 52.9536 16.9295 53.2956 16.9495 53.7421C16.9695 54.2076 16.5695 54.5971 16.0795 54.5971V54.5876Z" fill="#00928F"/>
<path d="M10.4005 17.6515C10.8805 17.6515 11.2905 17.243 11.2705 16.787C11.2505 16.35 10.8605 15.9985 10.3905 15.9985C9.92045 15.9985 9.54045 16.35 9.53045 16.7965C9.52045 17.262 9.93045 17.6515 10.4105 17.6515H10.4005Z" fill="white"/>
<path d="M22.6298 47.8329C22.6298 47.3769 22.2498 47.0254 21.7798 47.0254C21.2998 47.0254 20.8798 47.4149 20.8898 47.8709C20.8998 48.3269 21.3198 48.6974 21.8098 48.6689C22.2898 48.6499 22.6298 48.2984 22.6198 47.8329H22.6298Z" fill="white"/>
<path d="M10.4003 47.0254C9.94027 47.0254 9.54027 47.3769 9.52027 47.8234C9.50027 48.2889 9.89027 48.6784 10.3903 48.6784C10.8603 48.6784 11.2503 48.3269 11.2703 47.8899C11.2903 47.4339 10.8903 47.0349 10.4003 47.0254Z" fill="white"/>
<path d="M22.6298 16.8152C22.6298 16.3592 22.2798 16.0077 21.7898 15.9982C21.2998 15.9887 20.8798 16.3592 20.8898 16.8152C20.8898 17.2427 21.2798 17.6322 21.7398 17.6417C22.2298 17.6607 22.6298 17.2807 22.6298 16.8057V16.8152Z" fill="white"/>
<path d="M10.3997 17.6515C9.91971 17.6515 9.50971 17.262 9.51971 16.7965C9.52971 16.35 9.90971 15.9985 10.3797 15.9985C10.8497 15.9985 11.2397 16.3405 11.2597 16.787C11.2797 17.243 10.8697 17.6515 10.3897 17.6515H10.3997Z" fill="#00928F"/>
<path d="M22.6296 47.8329C22.6296 48.2889 22.2896 48.6404 21.8196 48.6689C21.3296 48.6879 20.9096 48.3269 20.8996 47.8709C20.8896 47.4149 21.3096 47.0254 21.7896 47.0254C22.2596 47.0254 22.6296 47.3864 22.6396 47.8329H22.6296Z" fill="#00928F"/>
<path d="M10.4003 47.0254C10.8803 47.0254 11.2903 47.4244 11.2703 47.8899C11.2503 48.3269 10.8603 48.6784 10.3903 48.6784C9.89027 48.6784 9.50027 48.2889 9.52027 47.8234C9.54027 47.3769 9.93027 47.0254 10.4003 47.0254Z" fill="#00928F"/>
<path d="M22.6296 16.8155C22.6296 17.2905 22.2296 17.661 21.7396 17.6515C21.2796 17.6325 20.8896 17.2525 20.8896 16.825C20.8896 16.369 21.2996 15.989 21.7896 16.008C22.2696 16.0175 22.6196 16.3595 22.6296 16.825V16.8155Z" fill="#00928F"/>
</g>
<defs>
<clipPath id="clip0_5187_37175">
<rect width="64" height="64" fill="white"/>
</clipPath>
</defs>
</svg>
