<svg width="64" height="64" viewBox="0 0 64 64" fill="none" xmlns="http://www.w3.org/2000/svg">
<path d="M26.207 49.2517C26.2153 49.0242 26.232 47.2672 26.232 47.0789C26.232 43.706 26.232 40.3252 26.232 36.9523C26.232 35.3835 25.3418 34.5442 23.7029 34.5363C23.1538 34.5363 20.1172 34.552 19.5682 34.5206C19.0191 34.4971 19.5016 34.152 19.5016 33.6813C19.5016 33.2185 19.0191 32.8812 19.5682 32.8342C19.7345 32.8185 19.9092 32.8342 20.0756 32.8342C24.5515 32.8342 31.5314 32.8342 36.0072 32.8342H36.7144V29.5946H36.0655C31.548 29.5946 24.5348 29.5946 20.0257 29.5946C19.8593 29.5946 19.6846 29.6024 19.5182 29.5946C19.0191 29.5397 19.5182 29.1946 19.5182 28.7474C19.5182 28.3003 19.0191 27.9552 19.5182 27.9003C19.7013 27.8846 19.8926 27.8924 20.084 27.8924C24.5847 27.8924 31.573 27.8924 36.0738 27.8924C36.2818 27.8924 36.4814 27.8924 36.6977 27.8924C37.3633 22.9115 40.2834 19.9543 45.5745 19.0287C45.5745 18.2365 45.5579 17.405 45.5745 16.5814C45.6244 14.4086 47.1386 12.6515 49.3598 12.1809C49.7758 12.0946 50.2167 12.0711 50.6493 12.0711C52.1135 12.0554 53.5861 12.0632 55.0503 12.0711C58.1118 12.0868 60.1168 14.0007 60.1168 16.903C60.1168 30.3947 60.1251 58.6018 60.1251 58.6018H58.2948C58.2948 58.6018 58.3032 55.3622 58.3032 54.3738H56.19C56.19 55.4249 56.1734 56.4368 56.1984 57.4408C56.215 57.9507 56.0569 58.3351 55.591 58.6018H37.3051C36.8392 58.3037 36.7061 57.888 36.731 57.3703C36.7643 56.3662 36.7393 55.3622 36.7393 54.3346C36.1653 54.3346 35.6828 54.3425 35.1919 54.3346C34.5846 54.3189 34.177 53.9659 34.1853 53.4718C34.1853 52.9776 34.5929 52.6403 35.2086 52.6325C35.7077 52.6246 36.2069 52.6325 36.7061 52.6325V49.3929C36.2069 49.3929 35.7327 49.4007 35.2668 49.3929C34.5929 49.3772 34.1936 49.0556 34.1853 48.5457C34.1853 48.0359 34.5846 47.7064 35.2502 47.6907C35.7327 47.6829 36.2152 47.6907 36.6894 47.6907V44.4668H28.0622V49.2517M54.3847 56.8839V56.2564C54.3847 47.0318 54.3847 37.8151 54.3847 28.5906C54.3847 28.2141 54.3847 27.8454 54.3515 27.4689C54.0936 23.5312 50.067 20.2994 45.899 20.676C41.5646 21.076 38.5446 24.2058 38.5363 28.316C38.5363 37.6426 38.5363 46.9691 38.5363 56.3035C38.5363 56.4917 38.5363 56.68 38.5363 56.8761H54.3764L54.3847 56.8839ZM58.2699 27.8768C58.2865 27.7591 58.3032 27.6963 58.3032 27.6257C58.3032 23.9312 58.3198 20.2367 58.3032 16.5422C58.2948 14.9969 56.997 13.8124 55.3331 13.7811C53.6776 13.7497 52.022 13.7497 50.3665 13.7811C48.6527 13.8124 47.4131 15.0126 47.3798 16.6441C47.3632 17.3187 47.3965 17.9933 47.3715 18.6679C47.3549 19.013 47.4963 19.1071 47.8457 19.1542C51.814 19.6562 55.0919 22.5115 55.9488 26.1981C56.0736 26.7472 56.1484 27.3041 56.2483 27.8689H58.2865L58.2699 27.8768ZM36.7061 34.5599H27.4383C27.9208 34.5599 28.1205 36.9287 28.1787 37.7681H36.6977V34.5599H36.7061ZM36.7061 39.5486H28.0706V42.6863H36.7061V39.5486ZM56.2399 44.459V47.6358H58.2699V44.459H56.2399ZM58.2699 37.7681V34.5755H56.2399V37.7681H58.2699ZM56.2316 29.626V32.795H58.2699V29.626H56.2316ZM56.2399 39.5251V42.6863H58.2616V39.5251H56.2399ZM58.2699 49.3929C57.6626 49.3929 57.0802 49.385 56.5062 49.4007C56.398 49.4007 56.215 49.5419 56.215 49.6204C56.1984 50.6087 56.1984 51.5971 56.1984 52.5932H58.2699V49.3929Z" fill="#00928F"/>
<path d="M8.36914 8.57306C8.36914 7.96907 8.36914 7.42783 8.36914 6.8866C8.37746 5.9061 8.74351 5.08247 9.61705 4.5177C9.94982 4.30592 10.3408 4.17257 10.7069 4C13.2277 4 15.7484 4 18.2692 4C18.4023 4.05491 18.5354 4.10982 18.6768 4.16472C19.8832 4.61183 20.5154 5.45899 20.6236 6.67481C20.6402 6.83169 20.6236 6.99641 20.6236 7.15329C20.6236 23.8689 20.6319 58.5943 20.6319 58.5943L18.81 58.61C18.81 58.61 18.81 23.9865 18.81 7.31802C18.81 7.12192 18.8183 6.92582 18.8016 6.72972C18.7434 6.14142 18.3191 5.72568 17.6952 5.71784C15.5488 5.70215 13.4024 5.70215 11.2643 5.71784C10.6986 5.71784 10.2576 6.06298 10.2077 6.58068C10.1495 7.22389 10.1911 7.88279 10.1911 8.5809" fill="#00928F"/>
<path d="M13.2611 7.99268H5.83194C5.37247 7.99268 5 8.34386 5 8.77708V56.9158C5 57.349 5.37247 57.7002 5.83194 57.7002H13.2611C13.7206 57.7002 14.0931 57.349 14.0931 56.9158V8.77708C14.0931 8.34386 13.7206 7.99268 13.2611 7.99268Z" stroke="#FFCF55" stroke-width="2" stroke-miterlimit="10"/>
<path d="M30.9721 49.7778H23.7342C23.2885 49.7778 22.9272 50.1185 22.9272 50.5387V56.9394C22.9272 57.3596 23.2885 57.7003 23.7342 57.7003H30.9721C31.4178 57.7003 31.7791 57.3596 31.7791 56.9394V50.5387C31.7791 50.1185 31.4178 49.7778 30.9721 49.7778Z" stroke="#FFCF55" stroke-width="1.95" stroke-miterlimit="10"/>
</svg>
