<svg width="64" height="64" viewBox="0 0 64 64" fill="none" xmlns="http://www.w3.org/2000/svg">
<g clip-path="url(#clip0_5187_37406)">
<path d="M33.1495 29.3299C32.2995 29.3099 31.5295 29.3099 30.7895 29.3299C30.2195 29.3399 29.8095 29.7499 29.8195 30.2899C29.8195 30.8299 30.2395 31.2099 30.8195 31.2299C31.0795 31.2299 31.3595 31.2299 31.6195 31.2299C31.7395 31.2299 31.8595 31.2299 31.9695 31.2299C32.2195 31.2299 32.4595 31.2299 32.7195 31.2299C32.8695 31.2299 33.0295 31.2299 33.1795 31.2299C33.7495 31.2099 34.1595 30.7999 34.1595 30.2699C34.1595 29.7299 33.7395 29.3399 33.1595 29.3299H33.1495Z" fill="#FFCF55"/>
<path d="M41.37 29.3203C41.11 29.3203 40.84 29.3203 40.58 29.3203C40.33 29.3203 40.09 29.3203 39.85 29.3203C39.73 29.3203 39.61 29.3203 39.49 29.3203C39.33 29.3203 39.17 29.3203 39.02 29.3203C38.45 29.3403 38.04 29.7503 38.05 30.2903C38.05 30.8203 38.46 31.2103 39 31.2303C39.76 31.2503 40.55 31.2503 41.41 31.2303C41.97 31.2203 42.39 30.8003 42.38 30.2603C42.38 29.7303 41.96 29.3403 41.38 29.3203H41.37Z" fill="#FFCF55"/>
<path d="M50.5995 30.2902C50.5995 29.7502 50.1895 29.3402 49.6295 29.3202C48.7995 29.3002 47.9895 29.3002 47.2195 29.3202C46.6795 29.3302 46.2795 29.7302 46.2695 30.2502C46.2695 30.7902 46.6695 31.2002 47.2395 31.2202C47.5095 31.2302 47.7995 31.2202 48.0695 31.2202C48.1995 31.2202 48.3195 31.2202 48.4495 31.2202C48.5795 31.2202 48.6995 31.2202 48.8295 31.2202C49.0995 31.2202 49.3795 31.2202 49.6495 31.2202C50.1895 31.1902 50.5995 30.8002 50.6095 30.2802L50.5995 30.2902Z" fill="#FFCF55"/>
<path d="M58.48 52.75H56.39V52.79H55.81C55.65 52.79 55.49 52.79 55.33 52.79C55.01 52.79 54.68 52.79 54.36 52.78C54.34 52.78 54.31 52.76 54.29 52.75H52.01L34.86 52.76L32.91 52.75V52.77H28.39V52.75H26.15C26.07 52.78 25.99 52.8 25.88 52.8C25.85 52.8 25.83 52.8 25.8 52.8C25.42 52.78 25.02 52.78 24.61 52.79C24.42 52.79 24.23 52.79 24.03 52.79H23.89V52.75H21.87V52.77H17.68V26.16C17.68 25.03 17.42 24.77 16.27 24.77H15.08V19.64H21.57V20.32C21.57 21.28 21.57 22.23 21.57 23.19C21.57 25.37 21.57 27.62 21.57 29.83C21.55 32.49 22.02 35.01 22.95 37.32C22.97 37.38 22.99 37.43 23.02 37.5L23.1 37.73L23.83 37.75C23.71 37.75 23.6 37.77 23.49 37.78H25.85C25.38 37.76 25.12 37.58 24.92 37.12C24.1 35.2 23.64 33.32 23.52 31.34V31.23H23.99H24.71C25.12 31.23 25.45 31.11 25.66 30.9C25.82 30.73 25.9 30.52 25.9 30.26C25.9 29.68 25.46 29.32 24.74 29.32C24.51 29.32 24.27 29.32 24.04 29.32H23.59V29.22C23.65 22.37 29.43 14.46 38.65 13.61C43.23 13.19 47.64 14.59 51.06 17.55C54.5 20.53 56.61 24.78 56.85 29.22V29.32H56.75C56.47 29.32 56.21 29.32 55.96 29.32C55.81 29.32 55.66 29.32 55.51 29.32C54.9 29.34 54.48 29.74 54.49 30.3C54.5 30.84 54.91 31.21 55.51 31.23C55.78 31.23 56.05 31.23 56.34 31.23C56.47 31.23 56.61 31.23 56.76 31.23H56.86V31.33C56.82 32.64 56.57 33.96 56.12 35.36C55.88 36.09 55.57 36.81 55.3 37.43C55.23 37.58 55.04 37.67 54.87 37.74L54.82 37.76L32.71 37.78H57.62C57.56 37.78 57.53 37.75 57.46 37.74H57.33L57.37 37.61C57.45 37.35 57.54 37.1 57.63 36.84C57.81 36.31 57.99 35.77 58.15 35.23C59.56 30.32 58.78 24.94 56.03 20.47C53.28 16.02 48.84 12.92 43.85 11.98C43.42 11.9 43.27 11.72 43.25 11.27C43.25 11.09 43.24 10.91 43.23 10.73C43.21 10.01 43.18 9.26 42.97 8.59C42.38 6.68 41.04 5.51 38.99 5.09C38.92 5.08 38.86 5.05 38.8 5.02C38.78 5.02 38.76 5.01 38.75 5H25.29C25.04 5.11 24.79 5.21 24.54 5.3C23.99 5.51 23.43 5.73 22.95 6.05C21.6 6.97 20.88 8.33 20.83 10.11C20.81 10.83 20.82 11.55 20.83 12.31C20.83 12.65 20.83 13 20.83 13.36V13.46H18.31C16.96 13.46 15.6 13.46 14.25 13.46C11.16 13.46 8.91 15.73 8.91 18.84C8.91 20.16 8.91 21.49 8.91 22.84V24.78H8.39C8.12 24.78 7.86 24.78 7.6 24.78C6.56 24.78 6.27 25.06 6.27 26.09V52.76H6.17C6.17 52.76 6.15 52.76 6.14 52.76C5.64 52.76 5.26 52.99 5 53.45V58.93H58.15C58.66 58.64 58.79 58.2 58.83 57.59C58.96 55.94 58.83 54.34 58.45 52.75H58.48ZM27.4 16.73L26.63 15.41H28.92L27.41 16.73H27.4ZM37.11 11.69C37.03 11.85 36.85 11.92 36.68 11.97C35.69 12.27 34.69 12.6 33.72 12.91C33.28 13.05 32.83 13.2 32.39 13.34L32.32 13.36C32.19 13.4 32.05 13.45 31.91 13.45C31.01 13.45 30.1 13.45 29.19 13.45H27.02V11.17H37.06L37.09 11.23C37.16 11.41 37.17 11.55 37.12 11.67L37.11 11.69ZM22.7 13.34C22.72 12.93 22.73 12.51 22.74 12.1C22.76 11.16 22.78 10.19 22.94 9.26C23.16 7.97 24.46 6.95 25.9 6.94C30.6 6.92 34.52 6.92 38.24 6.94C39.84 6.95 41.2 8.25 41.33 9.89C41.36 10.25 41.35 10.61 41.34 10.99C41.34 11.16 41.34 11.34 41.34 11.53V11.63H39.06V11.53C39.06 11.4 39.06 11.26 39.06 11.13C39.06 10.85 39.06 10.59 39.06 10.32C39.03 9.59 38.69 9.25 37.97 9.25C34.03 9.25 30.1 9.25 26.16 9.25C25.44 9.25 25.08 9.62 25.08 10.38C25.08 11.05 25.08 11.73 25.08 12.41V13.45H22.71V13.35L22.7 13.34ZM10.84 18.74C10.84 16.81 12.25 15.4 14.16 15.39C16.78 15.38 19.5 15.39 22.49 15.39C24.14 15.39 25.44 16.47 25.73 18.06C25.77 18.27 25.72 18.54 25.61 18.71C25.15 19.41 24.69 20.07 24.2 20.78L23.57 21.69L23.54 21.42C23.54 21.42 23.54 21.36 23.53 21.32C23.52 21.24 23.51 21.15 23.51 21.06C23.51 20.71 23.51 20.35 23.51 20C23.51 19.61 23.51 19.23 23.51 18.84C23.51 18.05 23.16 17.7 22.39 17.7C19.68 17.7 16.98 17.7 14.27 17.7C13.53 17.7 13.17 18.06 13.17 18.8C13.17 20.03 13.17 21.26 13.17 22.49V24.75H10.89V24.5C10.87 24.4 10.86 24.31 10.86 24.22V23.06C10.86 21.61 10.86 20.17 10.86 18.72L10.84 18.74ZM8.23 26.74H15.75V48.01H8.22V26.74H8.23ZM8.23 49.98H15.75V52.76H8.22V49.98H8.23ZM56.89 57.02H56.25C53.82 57.02 41.4 57.02 38.97 57.02C38.96 57.02 38.95 57.02 38.94 57.02C38.89 57.02 38.84 57.02 38.78 57.02H6.97V54.74H56.89V57.02Z" fill="#00928F"/>
<path d="M48.8095 44.4803C48.7395 44.6003 48.6595 44.7303 48.5395 44.8003C45.7795 46.2903 42.9995 47.0403 40.2195 47.0403C37.4395 47.0403 34.6895 46.3003 31.9395 44.8203C31.8095 44.7503 31.7195 44.6203 31.6395 44.4903C31.5995 44.4403 31.5695 44.3803 31.5295 44.3403V44.3203L30.7295 46.3903L31.2995 46.6703C31.7895 46.9103 32.2595 47.1403 32.7195 47.3803C32.8395 47.4403 32.9195 47.6403 32.9195 47.7703C32.9195 49.0803 32.9195 50.3903 32.9195 51.7303V52.7503H34.8695V48.1803L34.9995 48.2103C37.5395 48.9003 39.9895 49.0903 42.4895 48.7903C44.9795 48.4903 47.2995 47.7103 49.5895 46.4103L49.6795 46.3603L48.9095 44.3303C48.9095 44.3303 48.8495 44.4303 48.8195 44.4803H48.8095Z" fill="#00928F"/>
<path d="M57.3698 37.3601H23.0998C22.1098 37.3601 21.2998 38.1701 21.2998 39.1601V42.3101C21.2998 43.3001 22.1098 44.1101 23.0998 44.1101H25.0198L21.8798 52.7401H23.9198L23.9598 52.6401L27.0598 44.1001H29.5098L28.0498 48.1201C27.5498 49.4801 27.0398 50.8801 26.5598 52.2701C26.4698 52.5201 26.3498 52.6701 26.1698 52.7301H28.4098L30.5998 46.7101L30.7198 46.3701L31.4998 44.3001L31.4298 44.2101L31.5498 44.1601C31.5498 44.1601 31.6398 44.1201 31.6798 44.0901H48.7298C48.7298 44.0901 48.8098 44.1401 48.8498 44.1601L48.9598 44.2101L48.8898 44.3101L49.6598 46.3401H49.6698L49.9998 47.2501L50.1198 47.5701L51.9998 52.7301H54.2798C54.1498 52.7001 53.9998 52.6001 53.9598 52.4901C53.1098 50.1901 52.2698 47.8901 51.4198 45.5301L50.8998 44.1001H53.2998C53.2998 44.1001 53.3798 44.1701 53.3898 44.2101C54.4198 47.0301 55.4698 49.9301 56.3898 52.4901C56.4098 52.5301 56.3898 52.5701 56.3898 52.6101C56.3898 52.6301 56.3898 52.6501 56.3898 52.6801V52.7401H58.4798C58.2498 51.7701 57.9198 50.8001 57.4998 49.8301C56.9898 48.6701 56.5698 47.4401 56.1598 46.2601C55.9798 45.7301 55.7998 45.2101 55.6098 44.6801C55.5598 44.5401 55.5198 44.4101 55.4698 44.2501L55.4198 44.1001H57.3698C58.3598 44.1001 59.1698 43.2901 59.1698 42.3001V39.1501C59.1698 38.1601 58.3598 37.3501 57.3698 37.3501V37.3601ZM57.1698 42.1101H23.2998V39.3601H57.1798V42.1101H57.1698Z" fill="#FFCF55"/>
</g>
<defs>
<clipPath id="clip0_5187_37406">
<rect width="64" height="64" fill="white"/>
</clipPath>
</defs>
</svg>
