<svg width="64" height="64" viewBox="0 0 64 64" fill="none" xmlns="http://www.w3.org/2000/svg">
<g clip-path="url(#clip0_5187_37204)">
<path d="M0.350098 55C2.0001 54.39 5.7401 54.39 7.3901 55L8.4701 55.76C9.4901 56.12 11.5201 56.12 12.4901 55.76L14.5901 55C16.2401 54.39 18.9601 54.39 20.6101 55L22.7101 55.76C23.7301 56.12 25.7601 56.12 26.7301 55.76L28.8301 55C30.4801 54.39 33.2001 54.39 34.8501 55L36.9501 55.76C37.9701 56.12 40.0001 56.12 40.9701 55.76L43.0701 55C44.7201 54.39 47.4401 54.39 49.0901 55L51.1901 55.76C52.2101 56.12 54.2301 56.12 55.2101 55.76L57.3101 55C58.9501 54.39 61.6801 54.39 63.3301 55" stroke="#00928F" stroke-width="2" stroke-miterlimit="10"/>
<path d="M57.1699 58.4599C58.8599 57.8499 61.6599 57.8499 63.3499 58.4599" stroke="#00928F" stroke-width="2" stroke-miterlimit="10"/>
<path d="M22.3403 59.2202C23.3803 59.5802 25.4703 59.5802 26.4703 59.2202L28.6303 58.4702C30.3203 57.8602 33.1203 57.8602 34.8103 58.4702L36.9703 59.2202C38.0103 59.5802 40.1003 59.5802 41.1003 59.2202L43.2603 58.4702C44.9503 57.8602 47.7503 57.8602 49.4403 58.4702" stroke="#00928F" stroke-width="2" stroke-miterlimit="10"/>
<path d="M0.430176 58.4599C2.12018 57.8499 4.92018 57.8499 6.61018 58.4599L8.77018 59.2099C9.81018 59.5699 11.9002 59.5699 12.9002 59.2099" stroke="#00928F" stroke-width="2" stroke-miterlimit="10"/>
<path d="M36.9698 37.9398C31.2898 37.9398 25.6298 37.9398 19.9098 37.9398H18.2298V37.9899H17.3698C14.2698 37.9899 11.1698 37.9899 8.06981 37.9899C7.13981 37.9899 6.90981 38.2398 6.89981 39.1698C6.89981 40.2898 6.91981 41.3999 6.88981 42.5199C6.86981 43.0799 7.07981 43.4599 7.51981 43.7899C8.54981 44.5799 9.59981 45.3599 10.5698 46.2199C11.5298 47.0699 12.5198 47.6999 13.8598 47.4799C13.8898 47.4799 13.9298 47.5199 13.9798 47.5499V54.7399H15.7098V47.4999H19.0098V49.8699C19.0098 51.1599 19.0098 53.4499 19.0098 54.7399H20.7098V47.5098H43.1298V54.7399H44.8298C44.8298 52.9099 44.8298 50.0798 44.8298 48.2598V47.4999H48.1298V54.7499H49.8198C49.8198 52.8799 49.8198 50.0099 49.8198 48.1499V47.4699C50.3398 47.4699 50.7598 47.5099 51.1598 47.4599C51.4798 47.4199 51.8498 47.3299 52.0998 47.1399C53.5598 46.0199 55.0198 44.8798 56.4298 43.6898C56.7098 43.4498 56.9098 42.9699 56.9398 42.5899C57.0098 41.4799 56.9698 40.3599 56.9598 39.2399C56.9598 38.2099 56.7398 37.9999 55.7198 37.9899C54.8398 37.9899 53.9498 37.9899 53.0398 37.9899C52.5998 28.9099 52.1698 19.9399 51.7298 10.9199C53.1398 10.9199 54.4098 10.9199 55.6898 10.9199C56.8598 10.9199 57.0598 10.7199 57.0598 9.57985C57.0598 8.07985 57.0598 6.56985 57.0598 5.06985C57.0598 3.63985 56.9598 3.53985 55.5598 3.53985C43.4798 3.53985 31.3998 3.53985 19.3098 3.53985C17.4198 3.53985 15.5298 3.53985 13.6298 3.53985C13.3498 3.53985 13.0398 3.49985 12.7798 3.38985C11.0798 2.66985 9.25981 3.00985 7.99981 4.30985C6.75981 5.59985 6.47981 7.44985 7.26981 9.12985C7.34981 9.30985 7.43981 9.50985 7.43981 9.69985C7.41981 10.3999 7.40981 11.1099 7.31981 11.7999C7.01981 14.1499 7.59981 16.2499 9.05981 18.1199C10.0098 19.3399 10.4198 20.7098 10.2098 22.2598C10.1398 22.8098 10.3598 23.2098 10.8498 23.5098C11.1898 23.7198 11.4998 24.0198 11.7598 24.3198C12.1398 24.7498 12.1198 25.2198 11.6598 25.5798C10.2598 26.6498 10.2898 26.7198 9.10981 25.4998C8.99981 25.3898 8.90981 25.2498 8.79981 25.1398C8.43981 24.7798 8.03981 24.6998 7.64981 25.0498C7.25981 25.3898 7.22981 25.8299 7.56981 26.1999C8.07981 26.7399 8.59981 27.3199 9.21981 27.6999C9.65981 27.9699 10.3498 28.1198 10.8198 27.9798C11.7998 27.6898 12.6698 27.0998 13.2598 26.2098C13.7598 25.4698 13.8298 24.6498 13.3798 23.8798C13.0798 23.3598 12.6098 22.9398 12.2198 22.4698C12.0998 22.3398 11.8698 22.2098 11.8698 22.0798C11.9098 21.2298 11.6298 20.3698 12.1498 19.5498C12.9298 18.3198 13.6598 17.0598 14.3698 15.7799C14.5698 15.4198 14.6798 14.9699 14.6998 14.5599C14.7398 13.3799 14.7198 12.1999 14.7198 10.9799H43.1998C42.7598 19.9899 42.3298 28.9499 41.8898 37.9499H38.6498M11.0298 18.2099C10.5298 17.3699 10.0898 16.6199 9.60981 15.7999H12.4398C11.9598 16.6099 11.5398 17.3499 11.0298 18.2099ZM13.0198 14.0698H9.00981V10.9299C10.3798 11.5599 11.6798 11.5599 13.0198 10.9499V14.0698ZM11.0098 9.76985C9.58981 9.76985 8.44981 8.61985 8.43981 7.20985C8.43981 5.79985 9.57981 4.64985 10.9998 4.63985C12.4298 4.63985 13.5698 5.73985 13.5898 7.15985C13.6098 8.61985 12.4698 9.76985 11.0098 9.75985V9.76985ZM50.2398 5.20985H55.1498V8.52985C53.4598 7.43985 51.8298 6.38985 50.1998 5.33985C50.2098 5.29985 50.2198 5.24985 50.2298 5.20985H50.2398ZM40.6798 5.18985H45.5798V8.52985C43.8798 7.42985 42.2498 6.37985 40.6198 5.32985C40.6398 5.27985 40.6598 5.23985 40.6798 5.18985ZM51.1398 33.0698C51.2198 34.7098 51.2898 36.2998 51.3698 37.9398H43.5298C43.6098 36.3198 43.6798 34.7198 43.7598 33.0698H51.1398ZM43.9498 29.3699C44.0698 26.9399 44.1798 24.5098 44.2998 22.0598H49.6998C47.7898 24.5598 45.9498 26.9798 44.0998 29.3998C44.0498 29.3898 43.9998 29.3798 43.9498 29.3598V29.3699ZM44.6898 31.3498C46.6898 28.7298 48.6198 26.1998 50.6798 23.4998C50.8098 26.2498 50.9398 28.7998 51.0598 31.3498H44.6898ZM45.1098 20.3699C46.7898 17.9499 48.4098 15.6198 50.0298 13.2799C50.0798 13.2999 50.1298 13.3099 50.1898 13.3299C50.2998 15.6599 50.4198 17.9899 50.5298 20.3699H45.1098ZM44.6398 18.1599L44.4998 18.0899C44.5998 15.8399 44.6998 13.5899 44.8298 11.3399C44.8298 11.1899 45.0798 10.9399 45.2098 10.9399C46.6398 10.9099 48.0698 10.9199 49.6598 10.9199C47.9398 13.4099 46.2898 15.7799 44.6398 18.1498V18.1599ZM14.7498 9.22985C15.3998 7.85985 15.3898 6.57985 14.7698 5.21985C15.5498 5.17985 16.2198 5.04985 16.8998 5.49985C18.5798 6.62985 20.2998 7.70985 21.9998 8.80985C22.1598 8.91985 22.3198 9.03985 22.5998 9.22985H14.7598H14.7498ZM24.6198 8.53985C22.9298 7.44985 21.2898 6.38985 19.5098 5.23985H24.6198V8.53985ZM26.3698 9.21985V5.21985C27.0998 5.05985 27.6798 5.23985 28.2698 5.62985C29.8498 6.69985 31.4698 7.70985 33.0698 8.74985C33.2598 8.86985 33.4398 8.99985 33.7498 9.21985H26.3798H26.3698ZM35.7498 8.52985C34.0598 7.43985 32.4198 6.37985 30.7898 5.32985C30.8098 5.27985 30.8298 5.23985 30.8398 5.18985H35.7398V8.51985L35.7498 8.52985ZM37.5098 9.21985V5.27985C39.5498 6.59985 41.4998 7.85985 43.6198 9.21985H37.5098ZM55.3098 39.6799C55.3098 40.5799 55.3298 41.4499 55.2898 42.3099C55.2898 42.4699 55.1098 42.6599 54.9698 42.7799C53.8198 43.7099 52.6598 44.6399 51.4798 45.5399C51.2498 45.7099 50.9098 45.8299 50.6198 45.8299C38.1498 45.8399 25.6798 45.8399 13.2098 45.8299C12.9398 45.8299 12.6198 45.7299 12.4098 45.5599C11.2298 44.6599 10.0798 43.7399 8.92981 42.7999C8.75981 42.6599 8.57981 42.4199 8.56981 42.2099C8.52981 41.3899 8.54981 40.5799 8.54981 39.6799H55.3098ZM47.3198 9.21985V5.42985C49.2898 6.69985 51.1598 7.90985 53.1998 9.21985H47.3198Z" fill="#00928F"/>
<path d="M36.74 27.3101V37.9601H38.42C38.42 34.2601 38.42 30.5701 38.42 26.8801C38.42 25.8501 38.2 25.6301 37.18 25.6301C34.72 25.6301 32.26 25.6301 29.79 25.6301H29.03C29.03 24.0201 29.03 22.5201 29.03 21.0101C29.03 19.6001 29.03 18.1801 29.03 16.7701C29.03 16.2501 28.8 15.8701 28.23 15.8701C27.66 15.8701 27.43 16.2201 27.4 16.7501C27.4 16.9301 27.4 17.1101 27.4 17.3001C27.4 19.8101 27.4 22.3201 27.4 24.8201V25.6301H26.59C24.13 25.6301 21.67 25.6301 19.2 25.6301C18.23 25.6301 18 25.8601 18 26.8401C18 30.5601 18 34.2701 18 37.9901H19.68V27.3101H36.74Z" fill="#FFCF55"/>
<path d="M33.2599 30.77C31.5699 30.77 29.8899 30.77 28.1999 30.77C26.5099 30.77 24.8299 30.77 23.1399 30.77C22.5799 30.77 22.1299 30.91 22.0999 31.57C22.0699 32.09 22.4299 32.41 23.1199 32.41C26.5099 32.42 29.9099 32.42 33.2999 32.41C33.9799 32.41 34.3399 32.09 34.3099 31.56C34.2699 30.9 33.8199 30.77 33.2599 30.77Z" fill="#FFCF55"/>
</g>
<defs>
<clipPath id="clip0_5187_37204">
<rect width="63.7" height="57.49" fill="white" transform="translate(0 3)"/>
</clipPath>
</defs>
</svg>
